<mxfile modified="2024-02-12T23:37:08.013Z" host="app.diagrams.net" agent="Mozilla/5.0 (Windows NT 10.0; Win64; x64) AppleWebKit/537.36 (KHTML, like Gecko) Chrome/121.0.0.0 Safari/537.36" etag="1RNWM7_MlIHbLpqycYgh" version="23.1.3" type="device">
  <diagram id="WI9T0HZ2pTsCkuznbFz-" name="Page-1">
    <mxGraphModel dx="2074" dy="1110" grid="1" gridSize="10" guides="1" tooltips="1" connect="1" arrows="1" fold="1" page="1" pageScale="1" pageWidth="1169" pageHeight="827" math="0" shadow="0">
      <root>
        <mxCell id="0" />
        <mxCell id="1" parent="0" />
        <mxCell id="uXduwvgFjA6gVB0bptKn-31" value="" style="edgeStyle=orthogonalEdgeStyle;rounded=0;orthogonalLoop=1;jettySize=auto;html=1;startArrow=classic;startFill=1;" parent="1" source="uXduwvgFjA6gVB0bptKn-1" target="uXduwvgFjA6gVB0bptKn-30" edge="1">
          <mxGeometry relative="1" as="geometry" />
        </mxCell>
        <mxCell id="uXduwvgFjA6gVB0bptKn-1" value="Docker Hub" style="shape=image;verticalLabelPosition=bottom;labelBackgroundColor=#ffffff;verticalAlign=top;aspect=fixed;imageAspect=0;image=data:image/svg+xml,PHN2ZyB4bWxuczpjYz0iaHR0cDovL2NyZWF0aXZlY29tbW9ucy5vcmcvbnMjIiB4bWxuczpkYz0iaHR0cDovL3B1cmwub3JnL2RjL2VsZW1lbnRzLzEuMS8iIHhtbG5zOmlua3NjYXBlPSJodHRwOi8vd3d3Lmlua3NjYXBlLm9yZy9uYW1lc3BhY2VzL2lua3NjYXBlIiB4bWxuczpyZGY9Imh0dHA6Ly93d3cudzMub3JnLzE5OTkvMDIvMjItcmRmLXN5bnRheC1ucyMiIHhtbG5zOnNvZGlwb2RpPSJodHRwOi8vc29kaXBvZGkuc291cmNlZm9yZ2UubmV0L0RURC9zb2RpcG9kaS0wLmR0ZCIgeG1sbnM6c3ZnPSJodHRwOi8vd3d3LnczLm9yZy8yMDAwL3N2ZyIgeG1sbnM9Imh0dHA6Ly93d3cudzMub3JnLzIwMDAvc3ZnIiB4bWxuczp4bGluaz0iaHR0cDovL3d3dy53My5vcmcvMTk5OS94bGluayIgdmVyc2lvbj0iMS4xIiBpZD0ic3ZnMTY2NTAyIiBpbmtzY2FwZTp2ZXJzaW9uPSIwLjkyLjMgKDI0MDU1NDYsIDIwMTgtMDMtMTEpIiBzb2RpcG9kaTpkb2NuYW1lPSJkb2NrZXJfdG9vbHMuc3ZnIiB4PSIwcHgiIHk9IjBweCIgdmlld0JveD0iMCAwIDk5LjIyIDgzLjI0IiBzdHlsZT0iZW5hYmxlLWJhY2tncm91bmQ6bmV3IDAgMCA5OS4yMiA4My4yNDsiIHhtbDpzcGFjZT0icHJlc2VydmUiPiYjeGE7PHNvZGlwb2RpOm5hbWVkdmlldyBib3JkZXJjb2xvcj0iIzY2NjY2NiIgYm9yZGVyb3BhY2l0eT0iMSIgZml0LW1hcmdpbi1ib3R0b209IjAiIGZpdC1tYXJnaW4tbGVmdD0iMCIgZml0LW1hcmdpbi1yaWdodD0iMCIgZml0LW1hcmdpbi10b3A9IjAiIGdyaWR0b2xlcmFuY2U9IjEwIiBndWlkZXRvbGVyYW5jZT0iMTAiIGlkPSJuYW1lZHZpZXcxNjY1MDQiIGlua3NjYXBlOmN1cnJlbnQtbGF5ZXI9InN2ZzE2NjUwMiIgaW5rc2NhcGU6Y3g9IjY2LjE0MTY1NiIgaW5rc2NhcGU6Y3k9IjU1LjQ5MzEwOCIgaW5rc2NhcGU6cGFnZW9wYWNpdHk9IjAiIGlua3NjYXBlOnBhZ2VzaGFkb3c9IjIiIGlua3NjYXBlOndpbmRvdy1oZWlnaHQ9IjEwMTciIGlua3NjYXBlOndpbmRvdy1tYXhpbWl6ZWQ9IjEiIGlua3NjYXBlOndpbmRvdy13aWR0aD0iMTkyMCIgaW5rc2NhcGU6d2luZG93LXg9Ii04IiBpbmtzY2FwZTp3aW5kb3cteT0iLTgiIGlua3NjYXBlOnpvb209IjYuNTk5MDg5OCIgb2JqZWN0dG9sZXJhbmNlPSIxMCIgcGFnZWNvbG9yPSIjZmZmZmZmIiBzaG93Z3JpZD0iZmFsc2UiPiYjeGE7CTwvc29kaXBvZGk6bmFtZWR2aWV3PiYjeGE7PGcgaWQ9ImcxNjY1MDAiIHRyYW5zZm9ybT0idHJhbnNsYXRlKC03LjY1LC03LjY0OTMyOSkiPiYjeGE7CTx0aXRsZSBpZD0idGl0bGUxNjYzODQiPlBhZ2UtMTwvdGl0bGU+JiN4YTsJPGcgaWQ9Imdyb3VwMTM3Ny0xIiB0cmFuc2Zvcm09InRyYW5zbGF0ZSg3LjY1LC03LjE0MTc0KSI+JiN4YTsJCTx0aXRsZSBpZD0idGl0bGUxNjYzODYiPkRvY2tlciBUb29sczwvdGl0bGU+JiN4YTsJCTxnIGlkPSJzaGFwZTEzNzgtMiIgdHJhbnNmb3JtPSJ0cmFuc2xhdGUoMC4wNjc0MTM3KSI+JiN4YTsJCQk8dGl0bGUgaWQ9InRpdGxlMTY2Mzg4Ij5kb2NrZXJfNF88L3RpdGxlPiYjeGE7CQkJPHBhdGggaWQ9InBhdGgxNjYzOTAiIGlua3NjYXBlOmNvbm5lY3Rvci1jdXJ2YXR1cmU9IjAiIHN0eWxlPSJmaWxsOiMzRjU3NjU7IiBkPSJNNzMuMzksOTIuNzljMi4yMy0xLjkxLDQuNDYtMy44Myw2LjY5LTUuNzUgICAgIGMwLjc2LTAuNjYsMS41OS0xLjM0LDIuMzUtMi4wM2MtMC42MS0wLjc2LTEuNjItMS4zMS0yLjQ4LTEuNjRjLTEuNzMtMC42Ni0zLjQ0LTAuNDQtNS4wMywwLjQ4Yy0yLjA5LDEuMi0yLjk3LDMuMTItMi44OSw1LjUgICAgIGMwLjAzLDAuOTQsMC4yOCwxLjg0LDAuNzgsMi42NEM3Mi45OCw5Mi4yNyw3My4xOCw5Mi41NCw3My4zOSw5Mi43OXogTTc1Ljk3LDk0LjZjMS4xLDAuMzgsMi4zNCwwLjMzLDMuNDcsMC4xNCAgICAgYzAuNTctMC4yNSwyLjA0LTAuODksMi41OC0wLjhsMC4wOCwwLjAyTDgyLjE4LDk0YzAuMzMsMC4xNiwwLjY0LDAuMzgsMC44MSwwLjcyYzAuNCwwLjc5LDAuMjEsMS41Ny0wLjU3LDIuMDJsLTAuMjUsMC4xNSAgICAgYy0yLjg1LDEuNjUtNS44OSwxLjQyLTguNzMtMC4xMmMtMS4zNi0wLjczLTIuNC0xLjgyLTMuMTctMy4xNmwtMC4xOC0wLjMxYy0xLjgzLTMuMTctMS41OC02LjUsMC40OC05LjUyICAgICBjMC43Mi0xLjA0LDEuNjUtMS44NSwyLjc0LTIuNDhsMC40MS0wLjIzYzIuNjktMS41NSw1LjU3LTEuNDUsOC4zMy0wLjA5YzEuNDgsMC43MywyLjY4LDEuODMsMy41MSwzLjI2bDAuMTUsMC4yNiAgICAgYzAuNiwxLjA0LTAuMTgsMS45NS0wLjk4LDIuNTdjLTAuOTQsMC43Mi0xLjg4LDEuNTktMi43OCwyLjM2Qzc5Ljk2LDkxLjE1LDc3Ljk3LDkyLjg4LDc1Ljk3LDk0LjZ6IE05Ny4zNCw4MC4xOGgwLjMgICAgIGMwLjksMCwxLjUxLDAuNjEsMS41MSwxLjVjMCwxLjI1LTEuMiwxLjU3LTIuMjIsMS41N2MtMS4zNiwwLTIuNjQsMC44MS0zLjU3LDEuNzNjLTEuMTcsMS4xNS0xLjY3LDIuNjEtMS42Nyw0LjIydjcuMjggICAgIGMwLDAuODMtMC41MiwxLjUxLTEuMzksMS41MWgtMC4yNGMtMC44NiwwLTEuMzgtMC42OC0xLjM4LTEuNTF2LTcuN2MwLTIuOTUsMS40NC01LjM2LDMuODQtNy4wNiAgICAgQzkzLjk1LDgwLjcxLDk1LjU5LDgwLjE4LDk3LjM0LDgwLjE4eiBNNTkuODcsODUuMzRjMS4xNi0xLjE3LDIuMzQtMi4zMywzLjUyLTMuNDhjMC4zMy0wLjMyLDEuNTgtMS42OCwyLjA4LTEuNjhINjZsMC4wNiwwLjAxICAgICBjMC42OSwwLjE0LDEuMiwwLjU4LDEuMiwxLjMxdjAuM2MwLDAuNS0wLjU5LDEuMDktMC45MSwxLjQzYy0wLjY5LDAuNzQtMS40MiwxLjQ0LTIuMTMsMi4xNmwtMy42MywzLjY5ICAgICBjMS41NywxLjU2LDMuMTMsMy4xMyw0LjY4LDQuNzFjMC40MywwLjQ0LDAuODYsMC44OCwxLjI4LDEuMzJjMC4xNSwwLjE2LDAuMzcsMC4zNSwwLjUsMC41N2MwLjEzLDAuMjEsMC4yMSwwLjQ0LDAuMjEsMC42OHYwLjMxICAgICBsLTAuMDEsMC4wN2MtMC4xNywwLjY5LTAuNjEsMS4yNC0xLjM3LDEuMjRoLTAuMjRjLTAuNSwwLTEuMDYtMC41Ni0xLjQtMC44OGMtMC43LTAuNjYtMS4zOC0xLjM2LTIuMDctMi4wM2wtMi4zMS0yLjI3djMuNjIgICAgIGMwLDAuODQtMC41MiwxLjUxLTEuMzgsMS41MWgtMC4yNGMtMC44NiwwLTEuMzgtMC42Ny0xLjM4LTEuNTFWNzYuMDFjMC0wLjgzLDAuNTItMS41LDEuMzgtMS41aDAuMjRjMC44NiwwLDEuMzgsMC42NywxLjM4LDEuNSAgICAgTDU5Ljg3LDg1LjM0TDU5Ljg3LDg1LjM0eiBNNTAuMTIsODMuMzFjLTAuNDYtMC4yMS0xLjMxLTAuMjktMS44LTAuM2MtMi41MS0wLjEtNC4zMywxLjMyLTUuNCwzLjUzICAgICBjLTAuMzYsMC43Ny0wLjUzLDEuNTgtMC41MywyLjQyYzAsMi41OCwxLjM1LDQuMzgsMy42NSw1LjQ4YzAuODQsMC40LDEuOTIsMC40OCwyLjg0LDAuNDhjMC44MSwwLDEuOTUtMC41LDIuNjYtMC44NGwwLjEzLTAuMDYgICAgIGgwLjU2bDAuMDYsMC4wMmMwLjY4LDAuMTQsMS4yLDAuNTcsMS4yLDEuMzF2MC4zYzAsMS44My0zLjM1LDIuMjUtNC42MywyLjM0Yy00LjUsMC4zMS03Ljg3LTIuMTctOS4xNS02LjQ2ICAgICBjLTAuMjMtMC43NS0wLjMzLTEuNDktMC4zMy0yLjI3di0wLjZjMC0zLjI2LDEuNjItNS44NCw0LjQyLTcuNWMxLjMtMC43NywyLjczLTEuMTYsNC4yNS0xLjE2aDAuNTljMS42LDAsMy4wOCwwLjQ1LDQuNCwxLjM2ICAgICBsMC4xMSwwLjA3bDAuMDcsMC4xMmMwLjE0LDAuMjMsMC4yNywwLjUxLDAuMjcsMC43OXYwLjNjMCwwLjc2LTAuNTgsMS4xOC0xLjI3LDEuMzFsLTAuMDYsMC4wMWgtMC4xOCAgICAgQzUxLjUzLDgzLjk2LDUwLjUyLDgzLjUsNTAuMTIsODMuMzF6IE0yMi43LDg5LjAyYzAsMi4yOSwxLjEyLDMuOTcsMy4wNSw1LjE1YzAuOTEsMC41NiwxLjksMC44MSwyLjk2LDAuODEgICAgIGMyLjI2LDAsMy45My0xLjE1LDUuMDktMy4wNWMwLjU2LTAuOTEsMC44MS0xLjkxLDAuODEtMi45N2MwLTIuMTItMS4wMy0zLjc1LTIuNzgtNC45MmMtMC45Ni0wLjY1LTIuMDItMC45Ny0zLjE4LTAuOTcgICAgIGMtMi41MiwwLTQuMzMsMS4yNy01LjQyLDMuNTNDMjIuODYsODcuMzYsMjIuNyw4OC4xOCwyMi43LDg5LjAyeiBNMjguMzUsODAuMDZoMC40MmMzLjQ5LDAsNi4xNCwxLjY5LDcuODEsNC43MyAgICAgYzAuNjgsMS4yMiwxLjAzLDIuNTQsMS4wMywzLjk0djAuNTljMCwzLjI2LTEuNiw1Ljg2LTQuNDEsNy41MWMtMS4zLDAuNzYtMi43NCwxLjE1LTQuMjUsMS4xNWgtMC42Yy0zLjI2LDAtNS44NS0xLjYxLTcuNS00LjQxICAgICBjLTAuNzctMS4zLTEuMTYtMi43NC0xLjE2LTQuMjV2LTAuNTljMC0zLjI3LDEuNjItNS44NSw0LjQxLTcuNTFDMjUuNDEsODAuNDUsMjYuODQsODAuMDYsMjguMzUsODAuMDZ6IE0zLjAxLDg5LjAyICAgICBjMCwyLjM2LDEuMTQsNC4xMywzLjIsNS4yNmMwLjg0LDAuNDUsMS43NCwwLjcsMi42OSwwLjdjMi4zMSwwLDQuMDMtMS4wOSw1LjIxLTMuMDVjMC41NS0wLjkxLDAuODEtMS45MSwwLjgxLTIuOTcgICAgIGMwLTIuMDQtMC45Ny0zLjYzLTIuNjItNC44MmMtMC45OS0wLjcxLTIuMTItMS4wNy0zLjM0LTEuMDdjLTIuNTIsMC00LjMzLDEuMjctNS40MiwzLjUzQzMuMTcsODcuMzYsMy4wMSw4OC4xOCwzLjAxLDg5LjAyeiAgICAgIE0xNC45Miw4Mi4zdi02LjM1YzAtMC44MywwLjUyLTEuNSwxLjM4LTEuNWgwLjI0YzAuODcsMCwxLjM4LDAuNjcsMS4zOCwxLjV2MTMuMzdjMCwzLjI2LTEuNjEsNS44NS00LjQxLDcuNTEgICAgIGMtMS4zLDAuNzYtMi43NCwxLjE2LTQuMjUsMS4xNmgtMC42Yy0zLjI2LDAtNS44NS0xLjYyLTcuNS00LjQyQzAuMzksOTIuMjcsMCw5MC44MywwLDg5LjMydi0wLjU5YzAtMy4yNiwxLjYxLTUuODYsNC40MS03LjUxICAgICBjMS4zMS0wLjc3LDIuNzQtMS4xNiw0LjI1LTEuMTZoMC42QzExLjQ3LDgwLjA2LDEzLjM0LDgwLjkxLDE0LjkyLDgyLjN6Ii8+JiN4YTsJCTwvZz4mI3hhOwkJPGcgaWQ9InNoYXBlMTM3OS00IiB0cmFuc2Zvcm09InRyYW5zbGF0ZSgxMS44MzQzLC0yNy41NDkzKSI+JiN4YTsJCQk8dGl0bGUgaWQ9InRpdGxlMTY2MzkzIj5vdXRsaW5lXzdfPC90aXRsZT4mI3hhOwkJCTxwYXRoIGlkPSJwYXRoMTY2Mzk1IiBpbmtzY2FwZTpjb25uZWN0b3ItY3VydmF0dXJlPSIwIiBzdHlsZT0iZmlsbDojMzk0RDU0OyIgZD0iTTQ1LjQsNjAuMDloOC44N3Y5LjA3aDQuNDkgICAgIGMyLjA3LDAsNC4yLTAuMzcsNi4xNi0xLjA0YzAuOTYtMC4zMiwyLjA1LTAuNzgsMy0xLjM1Yy0xLjI2LTEuNjQtMS44OS0zLjctMi4wOC01Ljc0Yy0wLjI2LTIuNzYsMC4zLTYuMzcsMi4xNy04LjUzbDAuOTQtMS4wOCAgICAgbDEuMTEsMC44OWMyLjgsMi4yNSw1LjE1LDUuMzksNS41Niw4Ljk3YzMuMzctMC45OSw3LjMzLTAuNzYsMTAuMywwLjk2bDEuMjIsMC43bC0wLjY0LDEuMjVjLTIuNTIsNC45MS03Ljc3LDYuNDItMTIuOSw2LjE1ICAgICBjLTcuNjgsMTkuMTQtMjQuNDEsMjguMi00NC42OCwyOC4yYy0xMC40OCwwLTIwLjA5LTMuOTItMjUuNTctMTMuMjJsLTAuMDktMC4xNWwtMC43OS0xLjYyQzAuNjIsNzkuNDYsMCw3NC45OCwwLjQyLDcwLjUgICAgIGwwLjEyLTEuMzRoNy41OXYtOS4wN0gxN3YtOC44OGgxNy43NXYtOC44N2gxMC42NHYxNy43NUg0NS40eiIvPiYjeGE7CQk8L2c+JiN4YTsJCTxnIGlkPSJncm91cDEzODAtNiIgdHJhbnNmb3JtPSJ0cmFuc2xhdGUoMTMuMjcwMywtMjkuMDI4NikiPiYjeGE7CQkJPHRpdGxlIGlkPSJ0aXRsZTE2NjM5OCI+Ym9keV9jb2xvcnNfOF88L3RpdGxlPiYjeGE7CQkJPGcgaWQ9InNoYXBlMTM4MS03Ij4mI3hhOwkJCQk8dGl0bGUgaWQ9InRpdGxlMTY2NDAwIj5TaGVldC4xMzgxPC90aXRsZT4mI3hhOwkJCQk8cGF0aCBpZD0icGF0aDE2NjQwMiIgaW5rc2NhcGU6Y29ubmVjdG9yLWN1cnZhdHVyZT0iMCIgc3R5bGU9ImZpbGw6IzAwQUFEQTsiIGQ9Ik03Mi43MSw2NC45MmMwLjU5LTQuNjItMi44Ny04LjI1LTUuMDItOS45OCAgICAgIGMtMi40NywyLjg2LTIuODUsMTAuMzUsMS4wMywxMy41MWMtMi4xNywxLjkyLTYuNzMsMy42Ni0xMS40LDMuNjZIMC40NUMwLDc2Ljk5LDAuODYsODEuNDgsMi44MSw4NS4zM2wwLjY1LDEuMTggICAgICBjMC40MSwwLjY5LDAuODYsMS4zNiwxLjM0LDIuMDFsMCwwYzIuMzQsMC4xNSw0LjQ5LDAuMiw2LjQ2LDAuMTZjMCwwLDAsMCwwLjAxLDBjMy44Ny0wLjA5LDcuMDMtMC41NCw5LjQzLTEuMzcgICAgICBjMC4zNi0wLjEzLDAuNzUsMC4wNiwwLjg3LDAuNDJjMC4xMiwwLjM1LTAuMDcsMC43NC0wLjQyLDAuODdjLTAuMzIsMC4xMS0wLjY1LDAuMjEtMSwwLjMxbDAsMGMtMS44OSwwLjU0LTMuOTEsMC45LTYuNTIsMS4wNiAgICAgIGMwLjE2LDAtMC4xNiwwLjAyLTAuMTYsMC4wMmMtMC4wOSwwLjAxLTAuMiwwLjAyLTAuMjksMC4wM2MtMS4wMywwLjA1LTIuMTQsMC4wNy0zLjI3LDAuMDdjLTEuMjQsMC0yLjQ2LTAuMDMtMy44My0wLjEgICAgICBsLTAuMDMsMC4wM2M0LjczLDUuMzIsMTIuMTQsOC41MiwyMS40Myw4LjUyYzE5LjY1LDAsMzYuMzItOC43Miw0My43LTI4LjI4YzUuMjQsMC41NCwxMC4yNy0wLjc5LDEyLjU2LTUuMjYgICAgICBDODAuMSw2Mi44OSw3NS40MSw2My41Niw3Mi43MSw2NC45MnoiLz4mI3hhOwkJCTwvZz4mI3hhOwkJCTxnIGlkPSJzaGFwZTEzODItOSIgdHJhbnNmb3JtPSJ0cmFuc2xhdGUoMy41ODk0NiwtNS4xNDc2MSkiPiYjeGE7CQkJCTx0aXRsZSBpZD0idGl0bGUxNjY0MDUiPlNoZWV0LjEzODI8L3RpdGxlPiYjeGE7CQkJCTxwYXRoIGlkPSJwYXRoMTY2NDA3IiBpbmtzY2FwZTpjb25uZWN0b3ItY3VydmF0dXJlPSIwIiBzdHlsZT0iZmlsbDojMjRCOEVCOyIgZD0iTTY5LjEyLDcwLjA3YzAuNTktNC42My0yLjg3LTguMjYtNS4wMS05Ljk4ICAgICAgYy0yLjQ4LDIuODYtMi44NiwxMC4zNSwxLjAyLDEzLjUxYy0yLjE3LDEuOTItNi43MywzLjY2LTExLjQsMy42NkgwLjIzQzAsODQuNzMsMi43Nyw5MC40LDcuNjcsOTMuODNjMCwwLDAsMCwwLjAxLDAgICAgICBjMy44Ny0wLjA5LDcuMDMtMC41NSw5LjQzLTEuMzhjMC4zNi0wLjEyLDAuNzUsMC4wNywwLjg3LDAuNDNjMC4xMiwwLjM1LTAuMDcsMC43NC0wLjQyLDAuODZjLTAuMzIsMC4xMi0wLjY1LDAuMjItMSwwLjMybDAsMCAgICAgIGMtMS44OSwwLjUzLTQuMDgsMC45NC02LjY5LDEuMTFjMCwwLTAuMDctMC4wNy0wLjA3LTAuMDZjNi42OSwzLjQzLDE2LjM5LDMuNDEsMjcuNTEtMC44NmMxMi40Ny00Ljc5LDI0LjA3LTEzLjkxLDMyLjE2LTI0LjM1ICAgICAgQzY5LjM1LDY5Ljk1LDY5LjIzLDcwLjAxLDY5LjEyLDcwLjA3eiIvPiYjeGE7CQkJPC9nPiYjeGE7CQkJPGcgaWQ9InNoYXBlMTM4My0xMSIgdHJhbnNmb3JtPSJ0cmFuc2xhdGUoMC41NjA5MzMpIj4mI3hhOwkJCQk8dGl0bGUgaWQ9InRpdGxlMTY2NDEwIj5TaGVldC4xMzgzPC90aXRsZT4mI3hhOwkJCQk8cGF0aCBpZD0icGF0aDE2NjQxMiIgaW5rc2NhcGU6Y29ubmVjdG9yLWN1cnZhdHVyZT0iMCIgc3R5bGU9ImZpbGw6IzAwOEJCODsiIGQ9Ik0wLDc4LjA0YzAuMzUsMi42MSwxLjEyLDUuMDYsMi4yNSw3LjI4ICAgICAgbDAuNjUsMS4xOWMwLjQxLDAuNjksMC44NSwxLjM2LDEuMzQsMi4wMWMyLjM0LDAuMTUsNC40OSwwLjIsNi40NiwwLjE2YzMuODgtMC4wOSw3LjA0LTAuNTQsOS40NC0xLjM4ICAgICAgYzAuMzYtMC4xMiwwLjc0LDAuMDcsMC44NywwLjQzYzAuMTIsMC4zNS0wLjA3LDAuNzQtMC40MiwwLjg3Yy0wLjMyLDAuMTEtMC42NiwwLjIxLTEsMC4zMWwwLDBjLTEuODksMC41NC00LjA3LDAuOTItNi42OCwxLjA4ICAgICAgQzEyLjgyLDkwLDEyLjY2LDkwLDEyLjU3LDkwLjAxYy0xLjAyLDAuMDUtMi4xMiwwLjA5LTMuMjYsMC4wOWMtMS4yNCwwLTIuNTEtMC4wMi0zLjg3LTAuMDljNC43NCw1LjMyLDEyLjE5LDguNTMsMjEuNDgsOC41MyAgICAgIGMxNi44MiwwLDMxLjQ2LTYuMzksMzkuOTYtMjAuNUwwLDc4LjA0eiIvPiYjeGE7CQkJPC9nPiYjeGE7CQkJPGcgaWQ9InNoYXBlMTM4NC0xMyIgdHJhbnNmb3JtPSJ0cmFuc2xhdGUoNC4zMzM1NiwtNS4xMTE5OSkiPiYjeGE7CQkJCTx0aXRsZSBpZD0idGl0bGUxNjY0MTUiPlNoZWV0LjEzODQ8L3RpdGxlPiYjeGE7CQkJCTxwYXRoIGlkPSJwYXRoMTY2NDE3IiBpbmtzY2FwZTpjb25uZWN0b3ItY3VydmF0dXJlPSIwIiBzdHlsZT0iZmlsbDojMDM5QkM2OyIgZD0iTTAsODMuMTVjMS4wMSw0LjU5LDMuNDIsOC4xOSw2LjkzLDEwLjY0ICAgICAgYzMuODgtMC4wOCw3LjA0LTAuNTQsOS40NC0xLjM3YzAuMzUtMC4xMywwLjc0LDAuMDYsMC44NywwLjQyYzAuMTIsMC4zNi0wLjA3LDAuNzQtMC40MywwLjg3Yy0wLjMyLDAuMTEtMC42NSwwLjIxLTAuOTksMC4zMSAgICAgIGwwLDBjLTEuODksMC41NC00LjEyLDAuOTItNi43MywxLjA5YzYuNjksMy40MywxNi4zNiwzLjM4LDI3LjQ3LTAuODljNi43My0yLjU5LDEzLjItNi40MywxOS4wMS0xMS4wN0wwLDgzLjE1eiIvPiYjeGE7CQkJPC9nPiYjeGE7CQk8L2c+JiN4YTsJCTxnIGlkPSJzaGFwZTEzODUtMTUiIHRyYW5zZm9ybT0idHJhbnNsYXRlKDE2Ljk1OSwtMzcuNTAzNikiPiYjeGE7CQkJPHRpdGxlIGlkPSJ0aXRsZTE2NjQyMSI+U2hlZXQuMTM4NTwvdGl0bGU+JiN4YTsJCQk8cGF0aCBpZD0icGF0aDE2NjQyMyIgaW5rc2NhcGU6Y29ubmVjdG9yLWN1cnZhdHVyZT0iMCIgc3R5bGU9ImZpbGw6IzM5NEQ1NDsiIGQ9Ik02LjIsOTguNTRjMS4xMywwLDIuMjEtMC4wMywzLjI0LTAuMDkgICAgIGMwLjA5LTAuMDEsMC4xNy0wLjAxLDAuMjYtMC4wMmMwLjAxLDAsMC4wMSwwLDAuMDEsMGMyLjYxLTAuMTYsNC44Ny0wLjUxLDYuNzUtMS4wNWwwLDBjMC4zNS0wLjA5LDAuNjgtMC4yLDEtMC4zMSAgICAgYzAuMzUtMC4xMiwwLjU0LTAuNTEsMC40Mi0wLjg3Yy0wLjEyLTAuMzUtMC41MS0wLjU0LTAuODctMC40MmMtMi40LDAuODMtNS41NiwxLjI5LTkuNDMsMS4zN2wwLDBjLTEuOTgsMC4wNS00LjEzLDAtNi40Ny0wLjE1ICAgICBsMCwwYy0wLjEyLTAuMDEtMC4yNC0wLjAyLTAuMzYtMC4wM2MtMC4zNy0wLjAyLTAuNywwLjI2LTAuNzIsMC42NGMtMC4wMywwLjM3LDAuMjUsMC43LDAuNjMsMC43MyAgICAgYzAuNDgsMC4wMywwLjk1LDAuMDYsMS40MSwwLjA4YzAuMDcsMCwwLjE0LDAuMDEsMC4yMiwwLjAxQzMuNjUsOTguNSw0Ljk2LDk4LjU0LDYuMiw5OC41NEw2LjIsOTguNTR6Ii8+JiN4YTsJCTwvZz4mI3hhOwkJPGcgaWQ9Imdyb3VwMTM4Ni0xNyIgdHJhbnNmb3JtPSJ0cmFuc2xhdGUoMjEuNDQyNiwtNTYuODI5NykiPiYjeGE7CQkJPHRpdGxlIGlkPSJ0aXRsZTE2NjQyNiI+Q29udGFpbmVyc184XzwvdGl0bGU+JiN4YTsJCQk8ZyBpZD0ic2hhcGUxMzg3LTE4Ij4mI3hhOwkJCQk8dGl0bGUgaWQ9InRpdGxlMTY2NDI4Ij5TaGVldC4xMzg3PC90aXRsZT4mI3hhOwkJCQk8cGF0aCBpZD0icGF0aDE2NjQzMCIgaW5rc2NhcGU6Y29ubmVjdG9yLWN1cnZhdHVyZT0iMCIgc3R5bGU9ImZpbGw6IzAwQUNEMzsiIGQ9Ik02LjQ0LDkxLjQ5aDAuNjF2Ni40SDYuNDRWOTEuNDl6IE01LjI4LDkxLjQ5ICAgICAgaDAuNjN2Ni40SDUuMjhWOTEuNDl6IE00LjExLDkxLjQ5aDAuNjN2Ni40SDQuMTFWOTEuNDl6IE0yLjk1LDkxLjQ5aDAuNjN2Ni40SDIuOTVMMi45NSw5MS40OXogTTEuNzgsOTEuNDloMC42M3Y2LjRIMS43OCAgICAgIEwxLjc4LDkxLjQ5eiBNMC42NCw5MS40OWgwLjYxdjYuNEgwLjY0TDAuNjQsOTEuNDl6IE0wLDkwLjg1aDcuNjl2Ny42OUgwVjkwLjg1eiIvPiYjeGE7CQkJPC9nPiYjeGE7CQkJPGcgaWQ9InNoYXBlMTM4OC0yMCIgdHJhbnNmb3JtPSJ0cmFuc2xhdGUoOC44NzE5LC04Ljg3MzE3KSI+JiN4YTsJCQkJPHRpdGxlIGlkPSJ0aXRsZTE2NjQzMyI+U2hlZXQuMTM4ODwvdGl0bGU+JiN4YTsJCQkJPHBhdGggaWQ9InBhdGgxNjY0MzUiIGlua3NjYXBlOmNvbm5lY3Rvci1jdXJ2YXR1cmU9IjAiIHN0eWxlPSJmaWxsOiMwMEFDRDM7IiBkPSJNNi40NCw5MS40OWgwLjYxdjYuNDFINi40NFY5MS40OXogICAgICAgTTUuMjgsOTEuNDloMC42M3Y2LjQxSDUuMjhWOTEuNDl6IE00LjExLDkxLjQ5aDAuNjN2Ni40MUg0LjExVjkxLjQ5eiBNMi45NSw5MS40OWgwLjYzdjYuNDFIMi45NUwyLjk1LDkxLjQ5eiBNMS43OCw5MS40OSAgICAgIGgwLjYzdjYuNDFIMS43OEwxLjc4LDkxLjQ5eiBNMC42NCw5MS40OWgwLjYxdjYuNDFIMC42NEwwLjY0LDkxLjQ5eiBNMCw5MC44NWg3LjY5djcuNjlIMFY5MC44NXoiLz4mI3hhOwkJCTwvZz4mI3hhOwkJCTxnIGlkPSJzaGFwZTEzODktMjIiIHRyYW5zZm9ybT0idHJhbnNsYXRlKDguODcxOSkiPiYjeGE7CQkJCTx0aXRsZSBpZD0idGl0bGUxNjY0MzgiPlNoZWV0LjEzODk8L3RpdGxlPiYjeGE7CQkJCTxwYXRoIGlkPSJwYXRoMTY2NDQwIiBpbmtzY2FwZTpjb25uZWN0b3ItY3VydmF0dXJlPSIwIiBzdHlsZT0iZmlsbDojMjBDMkVGOyIgZD0iTTYuNDQsOTEuNDloMC42MXY2LjRINi40NFY5MS40OXogTTUuMjgsOTEuNDkgICAgICBoMC42M3Y2LjRINS4yOFY5MS40OXogTTQuMTEsOTEuNDloMC42M3Y2LjRINC4xMVY5MS40OXogTTIuOTUsOTEuNDloMC42M3Y2LjRIMi45NUwyLjk1LDkxLjQ5eiBNMS43OCw5MS40OWgwLjYzdjYuNEgxLjc4ICAgICAgTDEuNzgsOTEuNDl6IE0wLjY0LDkxLjQ5aDAuNjF2Ni40SDAuNjRMMC42NCw5MS40OXogTTAsOTAuODVoNy42OXY3LjY5SDBWOTAuODV6Ii8+JiN4YTsJCQk8L2c+JiN4YTsJCQk8ZyBpZD0ic2hhcGUxMzkwLTI0IiB0cmFuc2Zvcm09InRyYW5zbGF0ZSgxNy43NDYzKSI+JiN4YTsJCQkJPHRpdGxlIGlkPSJ0aXRsZTE2NjQ0MyI+U2hlZXQuMTM5MDwvdGl0bGU+JiN4YTsJCQkJPHBhdGggaWQ9InBhdGgxNjY0NDUiIGlua3NjYXBlOmNvbm5lY3Rvci1jdXJ2YXR1cmU9IjAiIHN0eWxlPSJmaWxsOiMwMEFDRDM7IiBkPSJNNi40NCw5MS40OWgwLjYxdjYuNEg2LjQ0VjkxLjQ5eiBNNS4yOCw5MS40OSAgICAgIGgwLjYzdjYuNEg1LjI4VjkxLjQ5eiBNNC4xMSw5MS40OWgwLjYzdjYuNEg0LjExVjkxLjQ5eiBNMi45NSw5MS40OWgwLjYzdjYuNEgyLjk1TDIuOTUsOTEuNDl6IE0xLjc4LDkxLjQ5aDAuNjN2Ni40SDEuNzggICAgICBMMS43OCw5MS40OXogTTAuNjQsOTEuNDloMC42MXY2LjRIMC42NEwwLjY0LDkxLjQ5eiBNMCw5MC44NWg3LjY5djcuNjlIMFY5MC44NXoiLz4mI3hhOwkJCTwvZz4mI3hhOwkJCTxnIGlkPSJzaGFwZTEzOTEtMjYiIHRyYW5zZm9ybT0idHJhbnNsYXRlKDE3Ljc0NjMsLTguODczMTcpIj4mI3hhOwkJCQk8dGl0bGUgaWQ9InRpdGxlMTY2NDQ4Ij5TaGVldC4xMzkxPC90aXRsZT4mI3hhOwkJCQk8cGF0aCBpZD0icGF0aDE2NjQ1MCIgaW5rc2NhcGU6Y29ubmVjdG9yLWN1cnZhdHVyZT0iMCIgc3R5bGU9ImZpbGw6IzIwQzJFRjsiIGQ9Ik02LjQ0LDkxLjQ5aDAuNjF2Ni40MUg2LjQ0VjkxLjQ5eiAgICAgICBNNS4yOCw5MS40OWgwLjYzdjYuNDFINS4yOFY5MS40OXogTTQuMTEsOTEuNDloMC42M3Y2LjQxSDQuMTFWOTEuNDl6IE0yLjk1LDkxLjQ5aDAuNjN2Ni40MUgyLjk1TDIuOTUsOTEuNDl6IE0xLjc4LDkxLjQ5ICAgICAgaDAuNjN2Ni40MUgxLjc4TDEuNzgsOTEuNDl6IE0wLjY0LDkxLjQ5aDAuNjF2Ni40MUgwLjY0TDAuNjQsOTEuNDl6IE0wLDkwLjg1aDcuNjl2Ny42OUgwVjkwLjg1eiIvPiYjeGE7CQkJPC9nPiYjeGE7CQkJPGcgaWQ9InNoYXBlMTM5Mi0yOCIgdHJhbnNmb3JtPSJ0cmFuc2xhdGUoMjYuNjE4MikiPiYjeGE7CQkJCTx0aXRsZSBpZD0idGl0bGUxNjY0NTMiPlNoZWV0LjEzOTI8L3RpdGxlPiYjeGE7CQkJCTxwYXRoIGlkPSJwYXRoMTY2NDU1IiBpbmtzY2FwZTpjb25uZWN0b3ItY3VydmF0dXJlPSIwIiBzdHlsZT0iZmlsbDojMjBDMkVGOyIgZD0iTTYuNDQsOTEuNDloMC42MXY2LjRINi40NFY5MS40OXogTTUuMjgsOTEuNDkgICAgICBoMC42M3Y2LjRINS4yOFY5MS40OXogTTQuMTEsOTEuNDloMC42M3Y2LjRINC4xMVY5MS40OXogTTIuOTUsOTEuNDloMC42M3Y2LjRIMi45NUwyLjk1LDkxLjQ5eiBNMS43OCw5MS40OWgwLjYzdjYuNEgxLjc4ICAgICAgTDEuNzgsOTEuNDl6IE0wLjY0LDkxLjQ5aDAuNjF2Ni40SDAuNjRMMC42NCw5MS40OXogTTAsOTAuODVoNy42OXY3LjY5SDBWOTAuODV6Ii8+JiN4YTsJCQk8L2c+JiN4YTsJCQk8ZyBpZD0ic2hhcGUxMzkzLTMwIiB0cmFuc2Zvcm09InRyYW5zbGF0ZSgyNi42MTgyLC04Ljg3MzE3KSI+JiN4YTsJCQkJPHRpdGxlIGlkPSJ0aXRsZTE2NjQ1OCI+U2hlZXQuMTM5MzwvdGl0bGU+JiN4YTsJCQkJPHBhdGggaWQ9InBhdGgxNjY0NjAiIGlua3NjYXBlOmNvbm5lY3Rvci1jdXJ2YXR1cmU9IjAiIHN0eWxlPSJmaWxsOiMwMEFDRDM7IiBkPSJNNi40NCw5MS40OWgwLjYxdjYuNDFINi40NFY5MS40OXogICAgICAgTTUuMjgsOTEuNDloMC42M3Y2LjQxSDUuMjhWOTEuNDl6IE00LjExLDkxLjQ5aDAuNjN2Ni40MUg0LjExVjkxLjQ5eiBNMi45NSw5MS40OWgwLjYzdjYuNDFIMi45NUwyLjk1LDkxLjQ5eiBNMS43OCw5MS40OSAgICAgIGgwLjYzdjYuNDFIMS43OEwxLjc4LDkxLjQ5eiBNMC42NCw5MS40OWgwLjYxdjYuNDFIMC42NEwwLjY0LDkxLjQ5eiBNMCw5MC44NWg3LjY5djcuNjlIMFY5MC44NXoiLz4mI3hhOwkJCTwvZz4mI3hhOwkJCTxnIGlkPSJzaGFwZTEzOTQtMzIiIHRyYW5zZm9ybT0idHJhbnNsYXRlKDI2LjYxODIsLTE3Ljc0NjMpIj4mI3hhOwkJCQk8dGl0bGUgaWQ9InRpdGxlMTY2NDYzIj5TaGVldC4xMzk0PC90aXRsZT4mI3hhOwkJCQk8cGF0aCBpZD0icGF0aDE2NjQ2NSIgaW5rc2NhcGU6Y29ubmVjdG9yLWN1cnZhdHVyZT0iMCIgc3R5bGU9ImZpbGw6IzIwQzJFRjsiIGQ9Ik02LjQ0LDkxLjQ5aDAuNjF2Ni40MUg2LjQ0VjkxLjQ5eiAgICAgICBNNS4yOCw5MS40OWgwLjYzdjYuNDFINS4yOFY5MS40OXogTTQuMTEsOTEuNDloMC42M3Y2LjQxSDQuMTFWOTEuNDl6IE0yLjk1LDkxLjQ5aDAuNjN2Ni40MUgyLjk1TDIuOTUsOTEuNDl6IE0xLjc4LDkxLjQ5ICAgICAgaDAuNjN2Ni40MUgxLjc4TDEuNzgsOTEuNDl6IE0wLjY0LDkxLjQ5aDAuNjF2Ni40MUgwLjY0TDAuNjQsOTEuNDl6IE0wLDkwLjg1aDcuNjl2Ny42OUgwVjkwLjg1eiIvPiYjeGE7CQkJPC9nPiYjeGE7CQkJPGcgaWQ9InNoYXBlMTM5NS0zNCIgdHJhbnNmb3JtPSJ0cmFuc2xhdGUoMzUuNDkxNCkiPiYjeGE7CQkJCTx0aXRsZSBpZD0idGl0bGUxNjY0NjgiPlNoZWV0LjEzOTU8L3RpdGxlPiYjeGE7CQkJCTxwYXRoIGlkPSJwYXRoMTY2NDcwIiBpbmtzY2FwZTpjb25uZWN0b3ItY3VydmF0dXJlPSIwIiBzdHlsZT0iZmlsbDojMDBBQ0QzOyIgZD0iTTYuNDQsOTEuNDloMC42MXY2LjRINi40NFY5MS40OXogTTUuMjgsOTEuNDkgICAgICBoMC42M3Y2LjRINS4yOFY5MS40OXogTTQuMTEsOTEuNDloMC42M3Y2LjRINC4xMVY5MS40OXogTTIuOTUsOTEuNDloMC42M3Y2LjRIMi45NUwyLjk1LDkxLjQ5eiBNMS43OCw5MS40OWgwLjYzdjYuNEgxLjc4ICAgICAgTDEuNzgsOTEuNDl6IE0wLjY0LDkxLjQ5aDAuNjF2Ni40SDAuNjRMMC42NCw5MS40OXogTTAsOTAuODVoNy42OXY3LjY5SDBWOTAuODV6Ii8+JiN4YTsJCQk8L2c+JiN4YTsJCTwvZz4mI3hhOwkJPGcgaWQ9InNoYXBlMTM5Ni0zNiIgdHJhbnNmb3JtPSJ0cmFuc2xhdGUoMzUuNDAyNCwtNDAuMTIpIj4mI3hhOwkJCTx0aXRsZSBpZD0idGl0bGUxNjY0NzQiPlNoZWV0LjEzOTY8L3RpdGxlPiYjeGE7CQkJPHBhdGggaWQ9InBhdGgxNjY0NzYiIGlua3NjYXBlOmNvbm5lY3Rvci1jdXJ2YXR1cmU9IjAiIHN0eWxlPSJmaWxsOiNENEVERjE7IiBkPSJNMi4xMiw5NC4yOWMxLjE3LDAsMi4xMiwwLjk1LDIuMTIsMi4xMiAgICAgYzAsMS4xOC0wLjk1LDIuMTMtMi4xMiwyLjEzUzAsOTcuNTksMCw5Ni40MUMwLDk1LjI0LDAuOTUsOTQuMjksMi4xMiw5NC4yOXoiLz4mI3hhOwkJPC9nPiYjeGE7CQk8ZyBpZD0ic2hhcGUxMzk3LTM4IiB0cmFuc2Zvcm09InRyYW5zbGF0ZSgzNi4wMDQsLTQwLjcyMykiPiYjeGE7CQkJPHRpdGxlIGlkPSJ0aXRsZTE2NjQ3OSI+U2hlZXQuMTM5NzwvdGl0bGU+JiN4YTsJCQk8cGF0aCBpZD0icGF0aDE2NjQ4MSIgaW5rc2NhcGU6Y29ubmVjdG9yLWN1cnZhdHVyZT0iMCIgc3R5bGU9ImZpbGw6IzM5NEQ1NDsiIGQ9Ik0xLjUyLDk1LjVjMC4xOSwwLDAuMzgsMC4wNCwwLjU1LDAuMSAgICAgYy0wLjE5LDAuMTEtMC4zMSwwLjMxLTAuMzEsMC41NGMwLDAuMzQsMC4yOCwwLjYyLDAuNjIsMC42MmMwLjIzLDAsMC40NC0wLjEzLDAuNTQtMC4zM2MwLjA4LDAuMTgsMC4xMiwwLjM4LDAuMTIsMC41OSAgICAgYzAsMC44NC0wLjY4LDEuNTItMS41MiwxLjUyQzAuNjgsOTguNTQsMCw5Ny44NiwwLDk3LjAyUzAuNjgsOTUuNSwxLjUyLDk1LjV6Ii8+JiN4YTsJCTwvZz4mI3hhOwkJPGcgaWQ9InNoYXBlMTM5OC00MCIgdHJhbnNmb3JtPSJ0cmFuc2xhdGUoMCwtNDguMDcyMykiPiYjeGE7CQkJPHRpdGxlIGlkPSJ0aXRsZTE2NjQ4NCI+U2hlZXQuMTM5ODwvdGl0bGU+JiN4YTsJCQk8cGF0aCBpZD0icGF0aDE2NjQ4NiIgaW5rc2NhcGU6Y29ubmVjdG9yLWN1cnZhdHVyZT0iMCIgc3R5bGU9ImZpbGw6IzM5NEQ1NDsiIGQ9Ik0wLDk3Ljg1aDQ2LjQ3aDUuNzVoNDYuNDcgICAgIGMtMi4xNS0wLjU1LTYuOC0xLjI4LTYuMDMtNC4xYy0zLjkxLDQuNTItMTMuMzMsMy4xNy0xNS43MSwwLjk0Yy0yLjY1LDMuODUtMTguMDcsMi4zOS0xOS4xNC0wLjYxYy0zLjMyLDMuOS0xMy42MSwzLjktMTYuOTMsMCAgICAgYy0xLjA4LDIuOTktMTYuNDksNC40NS0xOS4xNCwwLjYxYy0yLjM4LDIuMjMtMTEuOCwzLjU4LTE1LjcxLTAuOTRDNi44LDk2LjU3LDIuMTUsOTcuMywwLDk3Ljg1eiIvPiYjeGE7CQk8L2c+JiN4YTsJCTxnIGlkPSJzaGFwZTEzOTktNDIiIHRyYW5zZm9ybT0idHJhbnNsYXRlKDE5LjAyODUsLTI5LjAyODYpIj4mI3hhOwkJCTx0aXRsZSBpZD0idGl0bGUxNjY0ODkiPlNoZWV0LjEzOTk8L3RpdGxlPiYjeGE7CQkJPHBhdGggaWQ9InBhdGgxNjY0OTEiIGlua3NjYXBlOmNvbm5lY3Rvci1jdXJ2YXR1cmU9IjAiIHN0eWxlPSJmaWxsOiNCRkRCRTA7IiBkPSJNMjQuMTQsOTguNDlDMTguODgsOTYsMTYsOTIuNjEsMTQuMzksODguOTEgICAgIGMtMS45NSwwLjU1LTQuMjksMC45MS03LjAyLDEuMDZjLTEuMDMsMC4wNi0yLjExLDAuMDktMy4yNCwwLjA5Yy0xLjMxLDAtMi42OS0wLjA0LTQuMTMtMC4xMmM0LjgyLDQuODIsMTAuNzUsOC41MywyMS43Miw4LjU5ICAgICBDMjIuNTMsOTguNTQsMjMuMzQsOTguNTIsMjQuMTQsOTguNDl6Ii8+JiN4YTsJCTwvZz4mI3hhOwkJPGcgaWQ9InNoYXBlMTQwMC00NCIgdHJhbnNmb3JtPSJ0cmFuc2xhdGUoMjYuMzk4MiwtMzUuMjQzNCkiPiYjeGE7CQkJPHRpdGxlIGlkPSJ0aXRsZTE2NjQ5NCI+U2hlZXQuMTQwMDwvdGl0bGU+JiN4YTsJCQk8cGF0aCBpZD0icGF0aDE2NjQ5NiIgaW5rc2NhcGU6Y29ubmVjdG9yLWN1cnZhdHVyZT0iMCIgc3R5bGU9ImZpbGw6I0Q0RURGMTsiIGQ9Ik04Ljk3LDk4LjU0Yy0wLjcyLTAuOTktMS40My0yLjIzLTEuOTQtMy40MiAgICAgYy0xLjk2LDAuNTYtNC4zLDAuOTItNy4wMywxLjA3QzEuODcsOTcuMjEsNC41NSw5OC4xNSw4Ljk3LDk4LjU0eiIvPiYjeGE7CQk8L2c+JiN4YTsJPC9nPiYjeGE7PC9nPiYjeGE7PC9zdmc+;" parent="1" vertex="1">
          <mxGeometry x="563" y="70" width="64" height="53.66" as="geometry" />
        </mxCell>
        <mxCell id="uXduwvgFjA6gVB0bptKn-4" value="Keg" style="shape=cylinder3;whiteSpace=wrap;html=1;boundedLbl=1;backgroundOutline=1;size=15;strokeWidth=3;" parent="1" vertex="1">
          <mxGeometry x="110" y="182.25" width="79.5" height="145.75" as="geometry" />
        </mxCell>
        <mxCell id="uXduwvgFjA6gVB0bptKn-9" value="MQTT Broker" style="shape=image;verticalLabelPosition=bottom;labelBackgroundColor=default;verticalAlign=top;aspect=fixed;imageAspect=0;image=https://www.virtuozzo.com/company/blog/wp-content/uploads/2017/09/eclipse-mosquitto-logo.png;" parent="1" vertex="1">
          <mxGeometry x="469" y="222.65" width="70" height="68.95" as="geometry" />
        </mxCell>
        <mxCell id="uXduwvgFjA6gVB0bptKn-11" value="PostgreSQL &lt;br&gt;Database" style="image;aspect=fixed;html=1;points=[];align=center;fontSize=12;image=img/lib/azure2/databases/Azure_Database_PostgreSQL_Server.svg;" parent="1" vertex="1">
          <mxGeometry x="480" y="336.25" width="48" height="64" as="geometry" />
        </mxCell>
        <mxCell id="uXduwvgFjA6gVB0bptKn-35" value="" style="edgeStyle=orthogonalEdgeStyle;rounded=0;orthogonalLoop=1;jettySize=auto;html=1;entryX=1;entryY=0.5;entryDx=0;entryDy=0;startArrow=classic;startFill=1;" parent="1" source="uXduwvgFjA6gVB0bptKn-12" target="uXduwvgFjA6gVB0bptKn-22" edge="1">
          <mxGeometry relative="1" as="geometry">
            <mxPoint x="780" y="180" as="targetPoint" />
          </mxGeometry>
        </mxCell>
        <mxCell id="uXduwvgFjA6gVB0bptKn-12" value="Browser" style="verticalLabelPosition=bottom;sketch=0;aspect=fixed;html=1;verticalAlign=top;strokeColor=#d79b00;align=center;outlineConnect=0;shape=mxgraph.citrix.laptop_2;fillColor=#ffe6cc;" parent="1" vertex="1">
          <mxGeometry x="790" y="247" width="116" height="86.5" as="geometry" />
        </mxCell>
        <mxCell id="uXduwvgFjA6gVB0bptKn-23" style="edgeStyle=orthogonalEdgeStyle;rounded=0;orthogonalLoop=1;jettySize=auto;html=1;exitX=1;exitY=0.5;exitDx=0;exitDy=0;endArrow=none;endFill=0;" parent="1" source="uXduwvgFjA6gVB0bptKn-13" target="uXduwvgFjA6gVB0bptKn-19" edge="1">
          <mxGeometry relative="1" as="geometry" />
        </mxCell>
        <mxCell id="uXduwvgFjA6gVB0bptKn-13" value="" style="shape=image;verticalLabelPosition=bottom;labelBackgroundColor=default;verticalAlign=top;aspect=fixed;imageAspect=0;image=https://cdn-icons-png.flaticon.com/128/2929/2929016.png;" parent="1" vertex="1">
          <mxGeometry x="119.61999999999999" y="338" width="60.25" height="60.25" as="geometry" />
        </mxCell>
        <mxCell id="uXduwvgFjA6gVB0bptKn-25" style="rounded=0;orthogonalLoop=1;jettySize=auto;html=1;exitX=1;exitY=0.5;exitDx=0;exitDy=0;entryX=0;entryY=0.5;entryDx=0;entryDy=0;" parent="1" source="uXduwvgFjA6gVB0bptKn-17" target="uXduwvgFjA6gVB0bptKn-9" edge="1">
          <mxGeometry relative="1" as="geometry" />
        </mxCell>
        <mxCell id="uXduwvgFjA6gVB0bptKn-26" value="MQTT" style="edgeLabel;html=1;align=center;verticalAlign=middle;resizable=0;points=[];" parent="uXduwvgFjA6gVB0bptKn-25" vertex="1" connectable="0">
          <mxGeometry x="0.013" y="2" relative="1" as="geometry">
            <mxPoint x="1" as="offset" />
          </mxGeometry>
        </mxCell>
        <mxCell id="uXduwvgFjA6gVB0bptKn-17" value="NodeMCU" style="shape=image;verticalLabelPosition=bottom;labelBackgroundColor=default;verticalAlign=top;aspect=fixed;imageAspect=0;image=https://cdn1.iconfinder.com/data/icons/module/154/wifi-router-module-pc-detail-512.png;" parent="1" vertex="1">
          <mxGeometry x="310" y="244.25" width="74" height="74" as="geometry" />
        </mxCell>
        <mxCell id="uXduwvgFjA6gVB0bptKn-24" style="edgeStyle=orthogonalEdgeStyle;rounded=0;orthogonalLoop=1;jettySize=auto;html=1;exitX=1;exitY=0.5;exitDx=0;exitDy=0;entryX=0;entryY=0.5;entryDx=0;entryDy=0;endArrow=none;endFill=0;" parent="1" source="uXduwvgFjA6gVB0bptKn-19" target="uXduwvgFjA6gVB0bptKn-17" edge="1">
          <mxGeometry relative="1" as="geometry" />
        </mxCell>
        <mxCell id="uXduwvgFjA6gVB0bptKn-19" value="Amplifier" style="shape=image;html=1;verticalAlign=top;verticalLabelPosition=bottom;labelBackgroundColor=#ffffff;imageAspect=0;aspect=fixed;image=https://cdn2.iconfinder.com/data/icons/boxicons-regular-vol-3/24/bx-microchip-128.png" parent="1" vertex="1">
          <mxGeometry x="210" y="247.25" width="68" height="68" as="geometry" />
        </mxCell>
        <mxCell id="uXduwvgFjA6gVB0bptKn-20" value="" style="shape=image;verticalLabelPosition=bottom;labelBackgroundColor=default;verticalAlign=top;aspect=fixed;imageAspect=0;image=https://tasmota.github.io/docs/_media/frontlogo.svg;" parent="1" vertex="1">
          <mxGeometry x="301" y="182.25" width="92" height="46" as="geometry" />
        </mxCell>
        <mxCell id="uXduwvgFjA6gVB0bptKn-27" style="rounded=0;orthogonalLoop=1;jettySize=auto;html=1;exitX=0;exitY=0.5;exitDx=0;exitDy=0;entryX=1;entryY=0.5;entryDx=0;entryDy=0;" parent="1" source="uXduwvgFjA6gVB0bptKn-22" target="uXduwvgFjA6gVB0bptKn-9" edge="1">
          <mxGeometry relative="1" as="geometry">
            <mxPoint x="540" y="270" as="targetPoint" />
          </mxGeometry>
        </mxCell>
        <mxCell id="uXduwvgFjA6gVB0bptKn-28" value="Subscribes" style="edgeLabel;html=1;align=center;verticalAlign=middle;resizable=0;points=[];" parent="uXduwvgFjA6gVB0bptKn-27" vertex="1" connectable="0">
          <mxGeometry x="0.0771" y="2" relative="1" as="geometry">
            <mxPoint x="1" as="offset" />
          </mxGeometry>
        </mxCell>
        <mxCell id="uXduwvgFjA6gVB0bptKn-29" style="rounded=0;orthogonalLoop=1;jettySize=auto;html=1;exitX=0;exitY=0.75;exitDx=0;exitDy=0;entryX=1;entryY=0.465;entryDx=0;entryDy=0;entryPerimeter=0;strokeColor=default;startArrow=none;startFill=0;" parent="1" source="uXduwvgFjA6gVB0bptKn-22" target="uXduwvgFjA6gVB0bptKn-11" edge="1">
          <mxGeometry relative="1" as="geometry" />
        </mxCell>
        <mxCell id="uXduwvgFjA6gVB0bptKn-22" value="Keg Monitor" style="shape=image;imageAspect=0;aspect=fixed;verticalLabelPosition=bottom;verticalAlign=top;image=data:image/png,iVBORw0KGgoAAAANSUhEUgAAAgAAAAIACAYAAAD0eNT6AAAABHNCSVQICAgIfAhkiAAAAAlwSFlzAAAL0AAAC9ABdzF0jwAAABl0RVh0U29mdHdhcmUAd3d3Lmlua3NjYXBlLm9yZ5vuPBoAACAASURBVHic7d13nFxV/f/x95nZXrK76WWzO1sIJfQiXUC6CIgIKip8EUVQuoKACCgKKiBIkR9Ib9KLAtJ7h1ATIGT7ppC+vc7c8/sD0dCS7N4zc2fmvp6Ph4+HJNnPvLO72fuee8891whIoaqqqoocY/Y2xuwkq40l1UoaI6kg4GiurZS0VFbvW+mliLGPNrS2vhl0KAD4hAk6AMKhvrp6MytziqRvKvsO9mtrjowuNTk51zc0NAwGHQZAuFEAkFTV1dVTcmUusNL3xPfbJ1qN0fENLS33Bx0EQHjxAxlJU1ddvbekGyUzPugs6chI1/YNDx27cOHCvqCzAAgfCgCSoi4W+z9Z+3fJ5ASdJZ0Zq1eVl/ONhoaGpUFnARAuFAA4V1dVc6SMvTLoHBnknYTRTi0tLR1BBwEQHpGgAyC71FTV7C5j/xZ0jgyzcdTqFvHvEUAKRYMOgOxRX18/wXje45JKg86SgdYZW17WvbKz86WggwAIB95xwBk7FP+zpIlB58hUVua3tbW1VUHnABAOFAA4EYvF1pPRoUHnyGRGKjaJxG+CzgEgHCgAcCLH6mTx/eSAObS6unpK0CkAZD9+YMO3jSdNKrbSQUHnyBJ5uR9vmgQASUUBgG99eUW7ioV/znjW7B90BgDZjwIA37yIdgo6QzYxRtvEYrGwPi8BQIpQAOCftRsGHSHL5EXikXWCDgEgu1EA4JsxigWdIdtEcrzaoDMAyG4UALhQFnSAbGM9w+cUQFLxoBa4kOd3wJVXX6NJkye7yBK4P593nl584Xm/Y1gDACCpKABIC8XFxSotzY4bCXLz+GcFIP1xCQAAgBCiAAAAEEIUAAAAQogCAABACFEAAAAIIQoAAAAhRAEAACCEKAAAAIQQBQAAgBCiAAAAEEIUAAAAQogCAABACFEAAAAIIQoAAAAhRAEAACCEKAAAAIQQBQAAgBCiAAAAEEIUAAAAQogCAABACFEAAAAIIQoAAAAhRAEAACCEKAAAAIQQBQAAgBCiAAAAEEIUAAAAQogCAABACFEAAAAIIQoAAAAhRAEAACCEKAAAAIRQTtABkBXifgf85tenKTc3z0WWwC1auND3DBuxww6iAMCXogDANyv1GGmCnxnNTc2u4mSFiGe6g84AILtxCQC+GdkFQWfINiZi24POACC7UQDgwvtBB8gydliaG3QIANmNAgD/bOT5oCNkmXdbWlo6gg4BILtRAOBbImIflZQIOkfWMHo46AgAsh8FAL61tLR8JOmxoHNkCxuP3Bx0BgDZjwIAJ0zEXBR0hmxgjB5rmt/0btA5AGQ/CgCcaGhuflSyrAXwx8ras4IOASAcKABwxotEfi6JDWxGyUjXNbS2vhR0DgDhEA06ALJHR0fH4rHlFf2S9gg6S+axDSY391srVqwYDDoJgHCgAMCplZ0dL40tK4/JaNOgs2SQ5RFpj4bmZjZUApAyXAKAa3Z6W8uPJd0WdJDMYJdZL7L3vNZWNlMCkFKcAYBzLZK3srPj3nFl5fky2l6SCTpTmppjo9E9m1pZ9Q8g9SgASBa7orPjiXEV5S9L2k5SRdCB0khCRpf1Dw99t62t7aOgwwAIJ96ZIekqKysLC6LRo63MLyRNDTpPgBIyuluJ6DmN7Y2zgw4DINwoAEiZnaWcturqPY30zY//09Qp+78Hu63VSxFjH4l63m1z29sXBh0IAKTs/+GLNDZ16tSigkhBnYnEx8hE7pQ0xc+8nx/5A02dMslXputuuksNTa2+Zhij31nP+6dJ5C1uWNAw39cwAEiSnKADILwWLlzYJ+ldSaqrjvX7nbdufUz1dTFfM+4qKfIbQ/LM7Ma2tln+BwFA8nAbIAAAIUQBAAAghCgAAACEEAUAAIAQogAAABBCFAAAAEIoK24DjMViBfnWTolbOzboLJ+ISiuHo9He5ubmZZISQecBAGBVmVwATG119bdkzZHGaue4TJ5M+uxrlJAU8azqqmNDkhpkNEfWPGts4qmGtrY5QecDAIRbRhaAWCw2OSrdIasdM2AvwzxJG8hqA8keZE1EddWxuZK52cSj17NTHAAgCBm3BmBGZeW0qNUrstox6Cw+rCvZc2xOvLG+OnZNXWVdfdCBAADhkmkFIJrIyblXUlXQQRzJs9KPFE3Mqa2KnTt16lQH+9ACALBmGVUA6qtrDpfVVkHnSII8Y3RaYW7euzU1NV8JOgwAIPtlVAGQ7DFBJ0iy2ohnn6urqjk26CAAgOyWMQWgflp9pZU2CTpHCuTJ2Etqq2suFI9rBgAkScYUAOXGQ7VQzsieVFddfZUoAQCAJMiYAuBZOy7oDKlnflxfFTs36BQAgOyTMQUgYiMZk9Ula3RqXSx2WNA5AADZJZQH1UxjrS6vr6raIOgcAIDsQQHIAEYqtsbcICkadBYAQHagAGQMs2V9dfVPg04BAMgOFICMYs6pr68fE3QKAEDmowBkECuN9YbiRwedAwCQ+SgAGcYYnbjFFlvkBp0DAJDZMvJxwKOVk5OjwqLipL+O5yXU39cnz/OSMX5S5/LlX5d0fzKGZ6PBoSENDw2rp7dPeXl5ysvNUUlJ8r8PACCdhaoATJ48RV/f98CUvd7y5cvU0tygOe++pYGBAWdzPWt/IArA5zz74mt65oXX9NHipVr00VItXbZC3T29X/rn83JzVV4+RlMmT9TkSeM1ZfJELVvRkcLEABCcUBWAVBs3brzGjRuvDTfaTC8895Qa5n3gZK6R2WNnKedpKe5kYJa4675HRvTnh4aHtWTpci1Zulxvv5ukUACQplgDkAL5+fnaZdc9tfGmW7gaOWZ+LLalq2EAgPChAKSIMUZbb7ODplfF3Ay0djs3gwAAYUQBSCFjjHbYcRdFHDzWwBqzroNIAICQogCkWOmYMlXHav0PsqIAAABGjQIQgCoXBUCa4GJImohKNi/oEA4VBB0AANaEAhCA8rJy/0OsSv0PCV5NTc3GtdWxFyRTGXQWV6yxV9bHYmfPnDkzm0oNgCxDAQhAYaH/TWiMUUbvZDN16tSiuljsTxHPm2WkrYPO41ihtTqrv6f3ldrptVsFHQYAvggFIADG+J9hJQdTghGLxdYrzMt7WVanSCZr96Iw0qYmknixPhY7W/xbA5Bm+KGElKqrqjk0YvW6rDYKOktqmBxrdVZddc2jNTU1k4JOAwCfoAAgJbbYYovcuurqv8vYG4wy+/LF6NhdI573en119eZBJwEAiQKAFJg5YWZJx7Ll90nmx0FnCZap9GSera2u3ifoJABAAUBSVVdXTxko6n1G0teDzpIOjFRsZO6vjcWOCjoLgHCjACBpZlRWTsuReU4Sp70/LWqsrqirih0XdBAA4UUBQFLU1dVNTERzHpVUF3SWtGV0cW0sdnTQMQCEU9beghUCpqqqqiLoEF8kGo2OUTz+gGQ2CDrLqkpKSjQ4OKjh4eGgo3zCGKvL6qurh4asvSfoMKNV2l86PGfpnJ6gcwAYGQpA5irPNZEVQYf4Qp5VENsUFBYVaqONNlFdfb2qqqtUVVWlSZOnqCC/QIVFhf/9c4l4XH39/eroWKn5bfPV1taq9rY2vfP221qwYH6qY0eszNW5xlyd6hd2ZaCoV3XVMUnqkGyPZDolfWis5noRfRiV3ssrLn5zzpw5Q8EmBbAqCgAy2rRpldptj921xZZbab311lM0Z83f0tGcHJWWlqq0tFTTp1dp2+3/92TlpUuW6s033tBzzz2tV156WYlEIpnxs025ZMolVUqaaY1krORJ6u/p7a2tir0g6UnZyJNN7U2vS7KBpgVCjgKAjJOXl6fd99xTe+61t2ZuuKHT2RMmTtAee+2pPfbaU50dnXryicf1z/vvU1trq9PXCRsjFctoD0l7yHiqq441GaOblEjc1NDe3hh0PiCMMmY72fqqmoOssXf4mVFZOV1f3/dAV5FGrburU/+45bqgY2ScwqJC7bvf/vr2wd/RuHHjUva6nufp+Wef0y0336iGefNS9rohYWX0vPHM+Q1tzQ+IswJAynAGAGnPGKPd99hTP/3Z0SovT/26x0gkoq/uvJN23OmreuLxx3Tl3/6mFSvSc/lFBjKy2tEau2N9dextWXNuQ1vzXfr4ygGAJOI2QKS16lhMf/nrpfrV6acHcvBflTFGu+2+h66/+RYdcOCBMi6e6oT/stIm1tjb62Kxt2qm1+wYdB4g21EAkLZ233MP/e3/XamNN9k46CifUlxcrGOOO15/vvAvGjt2bNBxso/VRpGIfaauuvrGurq6iUHHAbIVBQBpp6CgQKf9+gydevoZKigsXPMHBGTzLbbQFVf9XRtuFJIHG6aWkcwPFU98UFtdHfzCHSALUQCQVkpKSvTH8y/UbnvsEXSUtTJ+wgRdcNHF2mmXnYOOkq0qjMxdddXVN1ZWVqZvGwQyEAUAaWP8hAm6+NLLtdHGmfWOOjc3V7/+zVn6xn77Bh0li5kf5kdznl+3urom6CRAtqAAIC2UlZfp/Av/oprazPz5Ho1GdcJJv9Te+3wj6CjZbPO4zIvrxGKbBh0EyAYUAASuoKBA5/zhPFVVVwcdxRdjjE78xS+041d3CjpKNpvsWftcbVXtbkEHATIdBQCBikQi+s3Zv3W+o19QotGoTjvjDK273rpBR8lipsQY71911dV7B50EyGQUAATqO987RNtsu23QMZzKz8/XWb/7vcaMGRN0lGxWIJm7a6tqdwg6CJCpKAAIzPobzNThRxwRdIykmDRpkk459XQ2C0quQmO8B2pqatJrowggQ1AAEIi8vDydfsYZikajQUdJmm23305f25VL1UlWFknYB2pqaiYFHQTINBQABOK7h3xfU6dNCzpG0h3185+rpKQk6BjZzWh6xLP/kJS9bRJIAh4GlKFKSop1xw1/Telrnn/J1XrqmZd9z5k6bZq+9/3vO0iU/saOHatDDz9cf7v0Ut+zjDG68co/a9y4YJ+J8FleIqG+/gH19PZpydLlmr9osZqb2/XO7A/UvuCjVMXYpa665vTG1uZzUvWCQKajAGCtJBIJvTbrXSezfnjYYcrLy3MyKxPst/83deftt2npkqW+5lhr9fLrb2ufPXd2E8yRSDSqkpJilZQUa/KkCdp4w/X++3vLl6/Usy++pieefklNLe1JTmLPqo/Fnm1oaXkmyS8EZAUuAWCtvD17rnp6en3PmThxknbdbXcHiTJHbm6uDjr4e05mvfTqm07mpMq4cRU6YN89dNmFZ+mCP/xKW2+5cTIXRkattVfHYrGCZL0AkE0oAFgrL7/2lpM53/v+IVm98O/L7LPvN1RWVu57zjuzP1BvX7+DRKm3wXrr6KzTjtP5vz9FNdWVSXoVUx+15uQkDQeyCgUAa2XWm7N9zygoKNBue+zpIE3m+fjv7v8BR/F4Qm+/+76DRMHZYL11dOn5v9H//eBARaLJ+BFkT5tRVVWbhMFAVqEAYI06Oru16KMlvudsv8OOKioqcpAoM+25l5vy88GHTU7mBCkSjergA/bW+eecovHuFzUWeib6Z9dDgWxDAcAazXV0wNl9z8x4xG+y1NWvo9o6/29Ms6EAfGL9det10Xmnq7pqqtO5VvaA+qqqDZwOBbIMBQBr9ME8/wecgsJCbbb5Fg7SZLZttt3e94yGxhYlEgkHadLDuHEVOv+cX2ndeqdPgozIRE93ORDINhQArNG8hmbfM2bO3FA5Odx1uulmm/ueMTA4pNb2hQ7SpI+SkmL99tfHa/q0yc5mWnnfqZ8+vc7ZQCDLUACwRgs/8nf/uiTe/f/HhhttqNzcXN9zFjn4mqSbMWNK9LszTlBpSbGjiSbHRnKOdjQMyDoUAKyWl0ho6bIVvufM3JDLsdLHTwqsq1/H95yPFmdfAZCkSRPH66Rjj3C4V4A9RGwRDHwhCgBWa+nylU6uN0+vqnaQJjtUVU/3PeOjJcscJElPW2+5sb7ubrfDKfWxGE9kAr4ABQCrtdjBgaakpEQVFem1f32Qpk+v8j1j8eLsLQCSdNghB6iibIybYdb80M0gILtQALBa3T19vmdUTk/Wrm+Zado0/2cAenr9b8uczkqKi3TY9w9wMsvK7iMuAwCfQwHAag0ODvqeUVxc6iBJ9igp9f/5GHDwdUl3u+68nSZNHO9iVHnt9NrNXAwCsgkFAKs1MDTke0aYd//7IsUl/j8fAwP+vy7pLhqN6sD9HG0eZbxd3QwCsgcFAKs1OOD/nWZhYaGDJNmjsMD/58PF1yUT7LLTtsp38OhoI+3iIA6QVSgAWC1rre8ZSXz8a0YyEf//7Kz8f10yQXFRob6y1ca+5xijrRzEAbIKBQCrlZ+f73tG/4D/hYTZpK/X/+fDxdclU2yz5aa+Z1hpbH19/QQHcYCsQQHAahU4OND09Wbm8+uTpb/ffwEoKPB/WjxTbLLR+k7OInlD3roO4gBZgwKA1cp3cKDpzfJb1kaqp6fb94yC/AIHSTLD2IoyTZns/817xNj1HMQBsgYFAKtV7GAF/8IFCxwkyR4LF/h/kE9xUbgWVk6v9P+4YCuP7SiBVVAAsFqTxo/zPaOzs0NdnZ0O0mSH9vZ23zMmu7k/PmNUTp3kf4gxjrYWBLIDBQCrNXHiOEUdrFp3cdDLFvPbW33PmDgpXAVg3Nhy/0M8UQCAVVAAsFo5OVGNrSjzPeeD9z9wkCbzxeNxzZvX4HvOlInhWtBeWOB/zYMxhi0pgVVQALBGkydP9D3jrbdmOUiS+d5/730N9Pu/K2LypJAVgEL/BcCzlgIArIICgDVapy7me8bbb77l5LHCme6NWa/7npGbm6Pqav+L4jJJxMFtgMZYft4Bq+AfBNZo/Rm1vmf09vbqvTmzHaTJbK++8orvGbWxKuXl5jpIAyDMKABYo/XXrXMy57FHH3UyJ1PNb5+vuR+873uOq68HgHCjAGCNxo4t1/hxFb7nPPPUUxpy8HTBTPX4Y484ebbCujNqHKQBEHYUAKyVzTeZ6XtGT0+Pnn36af9hMlAikdAj/37Y95xoJKJNNlzfQSIAYUcBwFrZ9iv+H8giSbfcfJM8z3MyK5M89ugjWrJkse85669Xp/IyFrMD8I8CgLWy6SYbKL/A/4OB2lpb9dKLLzhIlDkSiYRuu+VWJ7O22cpNEQMACgDWSn5enrbc1P9lAEm64brrQ3VL4BOPP6b29jYns7bZajMncwAgJ+gAGJ2+vj796GenpfQ1exw8x16SGhvm6Z/33acDDjzQybx01tPTo6uuuMLJLGOMzjjnov/+d25OVPkFBRpTWqzJEyeoctok1ddWa911apWbyz9tAKvHT4kM5XlWHy1eGnSMUbvumqu10y67aOzYsUFHSarrrrlaK1eudDLL2rX7mhfk52mD9dfRLjtuo+233lwFhf4v3QDIPlwCQCB6e3t10QUXOLktLl298/Zb+tf996f8dQcGh/TGW3N04aXX6Hs/PklXXvsPLVvupoQAyB4UAATmxRee1z133xV0jKTo6Fip3//ud4GvdRgcGNT9Dz6hH/3sVF113e3q6x8INA+A9EEBQKCuuuIKffD+e0HHcCqRSOi835+j5cuWBR3lv+LxhO574DEdedwZeuW1t4OOAyANUAAQqHg8rtNP/ZWzVfLp4IrLL9Prr/l/6E8yrFjRod/96TJdee0/FI+H504MAJ9HAUDgOjs6derJJ2v58uVBR/Hthuuu1b133x10jNWy1ur+B5/QGedcxCUBIMQoAEgLHy1apF/98qS0Om0+Uv+45WbdeP31QcdYa+/M/kCnnnWBurt7go4CIAAUAKSN5qZmHfuzozPucoC1Vlde8TddfdVVQUcZsYbGFp35+79qoH8w6CgAUowCgLSyePFiHf/zY/T2W28GHWWt9Pf36Xdnn6k7brst6CijNrehWX+6+Ep5Xvbekgng8ygASDudnR06+aSTdOP11wV+G93qtLa06Jijj9azTz8TdBTfXnn9Hd11v/+nFQLIHBQApKVEIqEbrrtOp578Sy2YvyDoOJ+SiMd11x2366if/Fgtzc1Bx3Hmxn/cq7kN2fP3AbB6FACktTdmzdLhh/5Al1/6Vw309wcdR+++866OOvLHuuLyyzU0NBR0HKe8hKfLr7xZiRA+rhkIIwoA0l4ikdA9d92tww89VPffe08gB965H8zVmb/+tU487hg1NTal/PVTpaGpVQ8//mzQMQCkAA8DQsZYsmSxLrn4Yt1844361re/rd332FPjJ0xI2usl4nG9+upruv/ee/Taq68k7XXSzR13Pag9v7ajcnKiQUcBkEQUAGScFStW6OqrrtK1V1+tzTbfTLvuvoe23HIrjRs/3vfseDyu99+bo2efeVpPPv6EOjo6HCTOLEuXr9STz7yoPXbdMegoAJKIAoCM5XmeZr0+S7NenyVJmj69Spttvrnq6tfR9KpKVVXHVFFR8aUfPzQ0pPnz2zW/bb5aW1s0+923Nfvd2RoYYHe8fz/6LAUAyHIUgMzVJet9LegQX8REIqXW2pskU5nK121vb/vcJkJ5eXkqLCpUUVGxiouLNTQ4qP6BfvX39aunJ112wDN/kE3cO+KPikRKrWeqZLzdJLOfpDJXieY2NKt9wUeaPm2yq5EA0gwFIHMlGtvaZgUd4svUVdbtomjiaUnTgswxNDSkoaEhdXZ0BhnjSxmj3za0NJ/tc8yNVVVVFTkmeoaRPVGScRBNL748S985cB8XowCkIe4CQFI0zm9ssInILpIWBp0lfdlzGlpaznYxqa2tbWVTa/MvJHugJCf7+r49+wMXYwCkKQoAkqZpftM8L2K+JmlR0FnSj/19Y2vrma6nNra23iujo1zMev+DxrTeiRGAPxQAJFVzc/PcqPV2kNG7QWdJDzYuq+MbW1t/k6xXaGxpuV4yD/qdMzg0pEWLlzpIBCAdUQCQdB+2tTUV9BZvJ2nEC92yiZFWWGv3amxruSTpL2YTZ7kYs2DBRy7GAEhDFACkxJylc3oaW1sONEa/kxTGx87NkZf4SlNb2xOpeLHGtrZZVvK9sf/SZStcxAGQhigASCXb0NJyloy+JSk055aNzC05BfnbNrS3N6b0dY1e8zujb8DJekIAaYgCEABrw/gG+H8aW1ruM7k5MyX9I+gsSbbA2si+Da3NP5g7d253AK/ve/Flfz+bIgHZigIQgIFBJz9U+1wMCUpDQ8PSxtaWQ6zsPrJqDzqPY1ayNw0m4hs3tTU9EFQII/n+RvN4MiCQtSgAAejq8r8pjZGCeEfpXFNr60OJiDa20kWSgn/er0/G6lVj9LXG1tZD58+fzwV0AGmLAhCAtlbfa7NkZZY7iJIWWlpaOppaW07K8RL1VuZySal/3q9PRnrbeGb/hraWbRpaWp4OOg8ArAkFIMX6+nrV0ux/LZiR/dBBnLQyt719YVNr8zFexMyQ7NVytKNdUhm9a6w5uKG1ZbOG9uZ/Kpx3OADIQBSAFHvl5ecVHx72PcezmusgTlpqbm5ubWxt/clgIj5VVscb6e2gM31Gt2SvNkbbNra0bNzQ1nynOPADyDA8DCiFZr/7lubNfd/JrEhErzgZlMb+cw39EkmX1E6v3VIRe7iR/aakqQHEGZL0goxuLO7vv/OdxYt7A8gAAM5QAFLA8zy9/upLevut112N7FdOzkuuhmWCpvam1yW9LunnddPrNjTRxO7WancrfdVIxUl62fdk9Ji19rHCvpJn5iydky7PDwYA3ygASTQwMKDWlka99cZr6uzscDn66YaGhvS/Pp4kje2NsyXNlnRRfX19vh0a2tAour41Wl+y6xlpAyvVScpdy5FLJb0nqw+s9L6Vec8z3uzW1lYeYgQga4WqACxbtlQP/evupL9OPOGpv69XXd2dsp77S8NW9mbnQzPUf4rQrP/871OmTp1alJ+fXxoZjpQqMlwmY8qM1C9ru7ycnO54PN7d1ta2MvWpASB4oSoAAwMDmj8/4/ec6RoYHr4v6BCZYOHChX36eMOkxUFnAYB0w10AGcZaXf6fAxsAAKNGAcgsfSY3enHQIQAAmY8CkFHMHxsbG5cEnQIAkPlCtQYgs9mGhNH5QacAAGQHzgBkhmFJh7W0tPBsVgCAExSAjGB+3dja+mLQKQAA2SOTLgGEdK91e1Nja8sFQadAOK1c2amGxpagY2jR4qVBRwCyTsYUAE+JlSZ8Jyz+XT5+/BFqbQ1p+UHQHn/6RT3+NCefgGyUMUfUiLUtQWdIKaM7TW7OAbNmzfL/6EAAAD4jYwpAQ3t7o6zmBZ0jBaxkLmxsaflumPf7BwAkV8YUAEmSMVcFHSHJVsroW42tzb+U5AUdBgCQvTKqACSMvUyyDUHnSAYj3RqXndnY0sI+/wCApMuoAtDS0jJgrN1fUmfQWdyxj3ue+WpDa8v3efwsACBVMqoASFJDW9t7xnrbZfh6gE7JXu1FzNaNra27N7c3Pxd0IABAuGTMbYCramhrey8Wi20ctfbnkjlS0oygM62OlXqN0Xuy5lkr70nPmCdbWlrZ1Q8AEJiMLADSx5cDJF0o6cIZVVW1CWNixkbGBZ3rP6wn0xGNeN1eNLqwqbGxPehACB9r7bBkgo6RRsxQ0AmAdJKxBWBVH7a1NUlqCjoHkE6M9BE7SK3KLgw6AZBOMm4NAIC19kbQAdKJkd4MOgOQTigAQJZqaG19RbLzg86RHmw8kkjcH3QKIJ1QAIDs5Vlj/hB0iLRgzdUfzp+/IOgYQDqhAABZrKql5WrJPBF0joA15iaGzwg6BJBuKABAFntaig8mhg+W9FLQWQLSGpHd94MFC5YHHQRIN9GgAwBIrq6urv5xE8bfLC9RIJktlCV3/6yBlXS7cqIHNjQ3twYdBkhH3CSMrDGjsnKaIpF8PzP6PG/R/Pnz+11lSjd1dXXTTTx+kKRdrEyVpJKgMzk0YIwWSHrJJqJ3NrY3zg46UBJFZlRVxfwOLoTCYgAAIABJREFU+c8t1AgpCgCyRl11zeuS3cLPDGsjuze1NT3uKhOQDFVVVRW5JrLC75zG1haOASHGGgAAAEKIAgAAQAhRAAAACCEKAAAAIUQBAAAghCgAAACEEAUAAIAQCsOOYMBa+9NBxSd8e8stDwo6B7A6H3Uk8nf448qgYyDDUQCAVUwpM/t8vIsskL4K89m/B/5xCQAAgBCiAAAAEEIUAAAAQogCAABACFEAAAAIIQoAAAAhxG2AABBSVVVVFUFnSKW8vLy+hoaGwaBzpAsKAACEVK6JrAg6QyrZ4bjqqqvjklkmo3mydq5R5BV58aca2tsbg86XahQAAECImBxJk2U1WTI7WtkfKxJVXVVsnpVuyZF304dtbU1Bp0wF1gAAAGC0jjE6O2Ei8+qrq/9VO712q6AjJRsFAACA/4lYmW+YiPdqXSx2R01NzaSgAyULBQAAgC9idVDEsx/UVlcfEnSUZKAAAADw5cqNzC111dV/j8ViBUGHcYkCAADAGpkfR60erq2tLQs6iSsUAAAA1s5OSnhPZ8v+CdwGCKzijtcG9GLjcNAxgNUajNugI4SWkTbNNdF/VVZW7j5//vz+oPP4QQEAVvHgO0NBRwCQ9uz2+Tk5N0g6OOgkfnAJAACAkbI6qL66+mdBx/CDAgAAwChYmb/U1NSsG3SO0aIAAAAwOvkRz7ss6BCjRQEAAGDUzG51sdg3g04xGhQAAAD8sDpTkgk6xkhRAAAA8Gez+pqa3YMOMVIUAAAAfLKePTzoDCPFPgAAEFJPPPNs0BFSqrOjU4sWLdIrL7+khx96SEuWLHY5fv/a2tqypqamTpdDk4kzAACAUCgrL9N666+nww4/XDfccosOP+LHikajrsYXKpHYzdWwVKAAAABCJy8vTz849FD99vfnOiwBka85GpQSFAAAQGhtu922+vmxxzqZZWR3cDIoRSgAAIBQ2++bB2iDmRu6GLWuJGfXFJKNAgAACDVjjA76jpPn+uTPqKqqdjEoFSgAAIDQ+8pXtlZeXp7vOQljJjuIkxIUAABA6BUUFmryZP/HbhOJlDiIkxLsAwCsYp+N81Q5NmMu4SGkBuNW1z8/EHSMrFMxdpza2tp8zfA8r9RRnKSjAACrOHirAm2/Tm7QMYDV6uynACRDTo7/k+IRG8mYM+sZExQAALhDAQAAIIQoAAAAhBAFAACAEKIAAAAQQhQAAABCiAIAAEAIsQ8AAITUN7+xT9AR1lpFRYUmT5mqbbfbVl/bbXeVlGTMhntpiwIAACHV3d0ddIS11t3drba2Nr36ysu67tprdcRPfqJv7Ltf0LEyGgUACLGOPk+vNsf1/qK4mpYktKDD08CQVe+QFDVWJQURlRcZVY+Lqn5iVJtX52j9qTmKmKCTp17foPRay5DmLIiraZmntuWe+oesegatjJHGFBiVFBjFxkdUMz6qzapytElljqLREH6ykqyrs1MXXXCBGhsaddwJJ8gYPsejQQEAVtHZb4OOkHQreq3++eag7n9rQHMWJOSt9q/sSZKenzf8318pL4po1/Vz9a0t8vWVmlxl88/e3kGrh2cP6b43BvVa87Di3po/5uXG//3/onxpp3XzdMBmBdppBmXAtX/ed68mTZqk7x5ySNBRMhIFAFjFibd364WGfB2/e5EmlmbXGtkFHZ6uerpfd74+oKH46Od09Hm6e9ag7p41qBmTozp6l0Lts3F+Vp0V6OjzdN3zA7rpxQF1DYy+FPYNSv9+Z0j/fmdIlRURHblzoQ7askC5PG/KmeuvvUY777KLJk+ZEnSUjMO3IbLG2PKKIyVN9TPDWmnOgoRufWVQeVGjTaZHFcnwt7iDcau/PdmvE27t0ZttcSXW4l3s2lreY/XI7CE99cGw1p+Wo8ljMrs0eVa69ZUBHX1jt56bN6xBH0Xps7oGrJ76YFgPvTOk2glRVY0b/Y/fwbh01TP97sJlMM/zFI8ntM222/qe9dijj2jRwkW+ZhiZO1d0drznO0wKZPa/ViBJ+oes/vhQrw6+oksNixNBxxm19xcltN8lnbrk8X4NxpN3eWP2grgOurxTFzzcp0QiMy+jLOzw9P2rOnXWfb1JvRTUvCyh/7umS6ff3aP+ocz8XKWbF55/TtbyuRwpCgCwGm+3x/XNyzp1zxuDQUcZsbtnDerAyzvUuCQ1Bcaz0v97ul+H/L1by3sz64fxC/OGte9fO/Ras8O3/Gtwx2uDOuDyTrUtz9yCmS6WL1umzs6OoGNkHAoAsAYDw1an3NGjM+/t1XCG/Ky+5PE+/erOHl/X+kdrVsuwDry8U83LMuOTddfrgzriuq5AFoA2LE7owL916s22AL5QWWbFihVBR8g4FABgLd36yoAOv7ZLPYPp/e724sf6dMnjwV4fnr8ioR/8vSvt393e88agTr+7Z61W9yfLyl6rw6/p0tvzKQF+xIf5/I0UBQAYgZcbh/XDv3dqRZqe4r7muX5d9kR6LA5b3Onp+1d1af7KAI+uq/Hvd4Z02l29a7gNMjV6Bq3+7+ouvTs/vQsTsgsFABihd+cndNjVXer2cXtYMtzwwoDOe7Av6BifsqjT02HXdGpZT3qVgEdmD+mE23qUSIej/390D1j96LrOlK3ZACgAwCi8vyiuH13blTaruF9qHNa5aXbw/0TrMk8/u6knbdZPNC5N6JQ70+vg/4mVvVZH3didduUS2YkCAIzSm21x/fKOHgV999HCDk/H3dqdlge0T7zROqw/P9QbdAx1DVj99Pou9abxOo7mZQmdkgbfV8h+FADAh0dmD+nKADdkGYpLP7+5SyvTdE3Cqq57YUD/eju42ymtlX55e7dalqfX5Ygv8th7Q7riqfQ8o4PsQQEAfLro0X692DC85j+YBBc/1pdRC8fOvLdXCzuCOQDf9NKAnnw/mK/TaPz1iX693c7KdiQPBQDwKeFZ/fKOnpTfR/5G67CueW4gpa/pV/eA1a/uTP3p7aalCZ3/cGa9o04kpBNv61Ff5u1BhQzBw4AAB5Z0efrjg30679vFKXm9/iGrk9N0IduavNQ4rBtfHNBh2xek5PUSCauTb8/MbXfblid0wSO9OnO/5HxfRa1Xl5TBI5RQ5GkZTQ86R9hQAABH7po1oP02y9O2dblJf62/PNKn1mXpfy37y1zwSJ92XT9XlWOT/zyya54fyOhNdm56aUB7b5SvrWrc/7j+sK2tyfnQUairjmXOtZksQgEAHLFWOu/BPt13bFlSH4377vyEbnzJ/XnhkqKI9t2lRDtuVaSJY3PUP+jpw+Zh/fPJbr39gdtLDf1DVmfc26vrjxjjdO5nta9I6NIkbIyUn2e011dLtMvWxZo6IUcJz6qpfVj/frZHL7zR5/QSh7XSGff06F/HlyuPn9hwiG8nwKH3FsZ1/xuDOmCL/KTMTySsfn2P+1P/e+1YorOOmaAJn3lHvu2m0mEHlOnBZ3p05l+XqrPb3YLD5+cN6743BvXNzZPzuZKk39zb6/zU/9abFOrcEyeqetqnz/RstVGhvvP1MXr5rX6desESzV/s7k1t49KErni6T8fvVuRsJsAiQMCxCx7tS9pGLtc8P6D3Fro9nf3jg8p16W8mf+7gv6p9dirR7RdN09SJbt8z/OHB3qRtq3zfG4N6fp7bM8v7fa1U1/9x6ucO/qvaZtNC3XlJpTaod1ts/t9T/frwo8y54wPpjwIAOLa409Mfk7DpTfOyhPOH/Hx3nzE69cjxMmtxyaK+Ok83/Xmaxpa5u26/stfqt/f3OJv3iRW9Vuc+6PZrsMvWxTr/lInKzVnzJ2vC2Khu+OM01aymKIzUcEI67a7MXPiJ9EQBAJLgjtcG9VKju3efnpVOv7tHA8PufvjvsEWRfnvshBF9TPW0XF36m8mKOly79+A7Q3r8vSF3AyWdeV+P0zML69fm65IzJikaXfvFHRVlEf3991NVWuzux+zb8+O6/oXMuvUT6YsCACSBtR+/W3N1D/etLw/otWZ3p/7HV0R1/ikjO6B9YutNCnXcD8c5yyJ9vEGQq30UnnhvSA+/665QFBZEdPGvJ6mwYOQ/LmOVuTr3xInOskgfbzzVuoxLAfCPAgCsorjQ3fL9+Ss9XfSo/9PQCzs855vYnH/KpNVe81+To79Xrq02KnSWZ0m3pz8+5P/v2NHn6Yx73Z76P/Nn41VXlTfqj997pxIdtJe7ux0Ghq3zvyPCiQIArOKEw8at1TXetXXDiwO+LgUkPKtT7uxx+vCab+1eqh239LeaPBIxOu+kiSrId/e5uuv1AT3h81LAmff1amm3u/0Rtt+8UN92cPA+7afjNXGcuwWUrheCIpwoAMAqZtTk6+hDKpzN86x04j96Rn1QuvzJfr3scC3BhLFRnX70eCezYpW5OuEwd5cCrJVOubNH81eO7nN1y8sDeugdt6f+zzl+4lotkFyTMSUR/eHEka23AJKNAgB8xs8PqXB6C9eyHk9H3dA94vvRn3x/WJc/6XbB11nHTFB5qbsVfD86sEybz3S3pW9nv9VPb+ga8W2UrzXH9YcH3J4W/8XhY1U11d0q/l22LtY3di5xNg/wiwIAfEY0avT7EyaOaoHcl3l7flwn3dajobU8c/tK07COu7Xb6S1fe+5Qor12dHsAikSM/nDCROXluvtczf0ooWNvWfvCNGdBXEfd2LXWn9u1sdkGBTr0m2XuBv7HmcdMcHobJeAHBQD4Ahuvm6//O6Dc6czH3hvSj67r0vI13J523xuDOvzaLqe3/I0pieisY92c+v+sdWJ5Ouq77i6bSB/vEvjDq7u0uHP1lwOeeG9Ih1zV5fRJjLk5H69viCRhP+exZVGd8hO3d1AAo0UBAL7ECYdVqHKS2wf7vNw4rD0uWKmrnx341MEt4Vk9P29YP7q2S7+8Y+3PFKytU348XhPHJm/n76O+V+FrpfwXeastrj3/0qHLn+zXgo7/fa48K73aPKxjbu7RT2/sdrpAUpKOPqRC9dVu/y6r+tbupVqvJnnzgbXFswCAL1FYENHvjp+gH52+0Onczn6rPz7Uqz8+1KuyQqOiPKOl3Z7iSXq431YbFeg7X0/uQ3fyco3+cOJEHfKLBfIcXrboGbS66NE+XfRon0oLjEoLPv5cDSfpNvi6KvdnMz4rEjH61ZHjdfhpbr+vgJHiDACwGl/dqkj771aatPmd/VaLOpN38C/IN/r9iW5Wsq/JlhsW6HvfSF7R6B6wWtiRvIN/NPrxqX+X6xm+zI5bFmnvnVgQiGBRAIA1OPuYCZoyITNPlv3yR+NUNz11p5tP/ck4xRzuf59KPzmo3OkdDWvyu2Mnalw5CwIRHAoAsAalxRGde1Jq3kW7tPUmhUlZyb46hQUR/elkt3dQpMK6NXk67tCxKX3NirKIzj6GvQEQHAoAsBZ23LJI39/X7V0ByTSm5OMDcTJWsq/JFjML9ZODMudzlZ9ndMGpk1Jy6v+z9t6pRP/3rcz5XCG7UACAtXTGz8Zryw1Td4p4tCIRowtPneT8DoaROOnwsb63G06Vs4+doPVr3W38NFKnHTlOX9nY3XMVgLVFAQDWUk5UuuQ3k5N6O50Lx/1wrHbZujjQDJGI0UWnT1Ll5PReD/D9/cqcPqhnNKJRo8vPnOL8NkpgTSgAwAhMHJuji389yekDg1zabbti/eyQ9DilXF4a1aW/mTyqx+imwhYzC3WGo+ci+FVRFtF1503N2MWmyEzp+S8TSGNf2bhQfz1jkqJptoB7m00LdfHpkwO57v9lNpqRryvOnqz8vPTJJEkb1Ofr77+fklZFburEHN3w52maPCHNvrGQtSgAwCjssX2J/nr6lLQpAZttUKCrfjfV6eN5XdlhiyL9v99OCWSR3Repm56na8+dqjEl6ffjr7YyV3dcPF21lel96QTZIf3+BQAZYq+vFuu8X0wK/Ja3TdYr0LXnTlVRYXocYL/IjlsW6S+nBX/ppK4qT7dcOE3jK9KkuX2BqRNzdNvFlRmx4BSZjQIA+PCt3Ut1zR+mqLQ4mH9Ke2xfopvPnxrY64/EXjuW6OYLpgb2NLztNivSHRen98H/E2PLorrlgmn6aZK3JUa4pf9PDSDN7bBFke66pDKlt5LlRKWTjxiny86clLaL7L7IFjMLdc9lldpkvdS9u41EjI76boWuO2+KykrT/+D/iWjU6OQjxunSMyaroixzvsbIHHxXAQ7UVeXprksrddR3K5J+mnvmOvm685Lp+ul3K9Jqwd/aqpycq9svrtQJh41L+pqFuul5uvn8qfrlEeMCv1QzWnvvVKKHr67W13fm2QFwiwIAOJKfZ/TLI8bpgauma68dS5wfnKdOzNE5J0zUPZdWaqMZwW1c40JOVDrmBxV6+Ooq7b9rqfOD84SxUZ1+1Hg9cNX0rNhkZ1x5VJf8erKuO28qjxKGM9x0CjhWNz1Pl505WQ2tQ7rlX5164Olurewc3eP+jJG22qhQ395rjPbdpSTwRXSuVU7O1YWnTtJxPxyrW/7VqX891a2lK0b/uL9N1y/QgXuO0QG7lablHRF+7bhlkbbffLru+He3zrh4SdBxkOEoAECS1Ffn6axjJuj0o8brtXf79dKbA3rjvX41tg1p2covPsjl5RrFKnO1fm2+ttm0UDtsURSKzWGqp+Xq9KPG61c/Gac33hvQS2/167V3BtTYPqQly+Nf+DG5OUZVU3K1fl2ett60SDtsXqjpU7L/9rlIxGjvrxbrjIuDToJMl/0/WYCA5eYYbbdZkbbb7H974/f1Wy3viKt3wCo+7KmkKKqiQqNx5dGMvVbtQjRqtNVGhdpqo/+dtu8f8LRsZUJ9A1bDw56KiqIqLjAaXxHuzxXgFwUACEBRoVFRYfa/W3WhsCCi6VNYrgS4xr8qAABCiAIAAEAIUQAAAAghCgAAACFEAQAAIIQoAAAAhBAFAACAEKIAAAAQQhQAAABCiAIAAEAIUQAAAAghCgAAACFEAQAAIIQoAAAAhBAFAACAEKIAAAAQQhQAAABCKCfoAAA+77YHu/T8G72+Znxz1zHabbtiR4m+3K/OX6LegYSvGb89dqLGlUcdJfpic5uHdOnNy33NqJ6ap5OPGOcoERAsCgCQht79cEAPP+uvAGy0TkFKCsBjL/aoq8fzNeNXP/aSXgCWrUz4/pzOXCdOAUDW4BIAAAAhRAEAACCEKAAAAIQQBQAAgBCiAAAAEEIUAAAAQojbAAEgpGZUVdUGnUGSEla5MkGnCB8KAACEVMJEGoPOgOBwCQAAgBCiAAAAEEIUAAAAQogCAABACFEAAAAIIQoAAAAhRAEAACCEKAAAgIyXk8u2NiNFAQAAZLxxY8cHHSHjUAAAABlt/IQJGlM2JugYGYcCAADIaNvvsKOM4WECI0UBAABkrJycHB108MFBx8hIFAAAQMY64idHasrUqUHHyEgUAABARvrmt76lg7/73aBjZCzumwAAZJSy8jL95Mifau99vhF0lIxGAQCAkCotLQ06wlqrqKjQ1GnTtM122+lru+6m4uLioCNlPAoAAITUfQ88GHQEBIg1AAAAhBAFAACAEKIAAAAQQhQAAABCiAIAAEAIUQAAAAghCgAAACFEAQAAQFI87vme4RnP/5AUoQAAACBpxfLlvmdEIpFuB1FSggIAAAi9/r5+ffTRIv+DPI8CAABApnjt1Vc1PDzse05U+shBnJSgAAAAQs1aq9v+cbOLUYNzW1vbXAxKBQoAACDU7rvnHs39YK6LUXMlJVwMSgUKAAAgtF58/gVdcfllTmZZmeecDEoRHgcMAAidwcFB3Xbrrbr5xhvkObtzz3vK0aCUoAAAAEKhs7NDixYu1Csvv6x/P/iQli5d4nJ8fyQ39zGXA5ONAgAAIbXrTl8NOkI2ub+hoaEr6BAjwRoAAAB88qy5NugMI0UBAADAnzeb25ofDzrESFEAAADwwXjmbEk26BwjRQEAAGCUjNFjDe3N/ww6x2hQAAAAGJ0BLxI5JugQo0UBAABgFKzRiU1NTR8GnWO0KAAAAIzcbU0tLf8v6BB+UAAAABiZl/uHh44IOoRfFAAAANbem8PW+/rChQv7gg7iFwUAAIC187SNRnZpa2tbGXQQFygAAACsidWVJjdnr6amps6go7jCswAAAPhyK2V0dGNry+1BB3GNMwAAAHyelexNyomu19iSfQd/iTMAAACsyjOyD1lrz25sa5sVdJhkogAAACDNlczNCWNvbmlpbQk6TCpQAAAAYTIkabmkD2U011r7imfMky0tLS0B50o5CgAAhNSw9cYGnSGVSktLe+fMmTMUdI50QQEAgJDKlvvZMTrcBQAAQAhRAAAACCEKAAAAIUQBAAAghCgAAACEEAUAAIAQ4jZAIA19ZaNC3zM2qM93kCR7TJ4Q1Xe+PsbXjGmT+JGJ7MF3M5CG9t+tVPvvVhp0jKxSNz1PfzhxYtAxgLTBJQAAAEKIAgAAQAhRAAAACCEKAAAAIUQBAAAghCgAAACEEAUAAIAQogAAABBCFAAAAEKIAgAAQAhRAAAACCEKAAAAIUQBAAAghCgAAACEEAUAAIAQygk6AIDMtvt2JeodSPiaUVTIexEg1SgAAHz508kTg44AYBSo3QAAhBAFAACAEKIAAAAQQhQAAABCiAIAAEAIUQAAAAghCgAAACFEAQAAIIQoAAAAhBAFAACAEKIAAAAQQhQAAABCiAIAAEAIUQAAAAghCgAAACFEAQBWYW3QCYA149sULlAAkEW8fr8TOnsSLoIASbWyy/M9w0q9DqIgg1EAkEVMl98J7YuGXQQBkqp9of/vUyN1O4iCDEYBQBaxC/1OePoV3hQh/T3l5PvUzncwBBmMAoCsYa1p8DvjjfcG9X7ToIs4QFJ09Xj611M9/gdZ0+h/CDIZBQBZwxj7jt8Znmd17hXLlUiwzArp6ZKbVqijy8FaFWPf9T8EmYwCgKwxbO3LknyvjnrprT796e/LHSQC3LrvsW7dcG+Hk1nGmBecDELGigYdAHCls7NzYGx5+f6Spvid9eb7A5r/0bB22KJIuTnGQTpg9BIJqytvX6lz/rbcya2qVuodTMSP7+rqivufhkxFAUBWGVdeNl4yu7qY9X7TkO5+tFu5OUZTJuaouJATZkit7l5Pjzzfo1/8abEeeKrH2T4VEZl/tbS33epmGjJVUt/a1NfXj7FDQxsZY9azxswwVuOtUak8jZGxlA8kgRknaTPXUyMRo6kTczR5fFT5eZwRQHINx6XlKxNqXTikeFK2prANklqSMRmjYE1CEXUZq25rtMxaO9dYO9fk5b3b0NDg+/bmL+P8J1l9dfW2MmZ/edrFGm0hzjIAADAKNm5lZkWsnlJE9ze0tLzscrqTAlBfXz/BDid+KmsPldE6LmYCAIBP+VCyN0aH86/8cOGHy/wO81UA1p0+fWrCRE+2RkdKKvIbBgAArN7H2zibKxPyLmhtbV002jmjKgA7SzltVbGfG6NzJJWO9sUBAMCo9Rmj8/OLi8+dM2fO0Eg/eMQFoKamZuOI590imQ1H+rEAAMC5d2wi8oOm+U0j2txpRAv06qpqDjWy90pm2siyAQCAJJlkIvbwirLynpWdHa+s7QetbQGI1lXF/iajP0jKHV0+AACQJDnGaK+K8ooJKzs7Hpa0xl0j1ngJYObMmXkDvb03yepgJxEBAEAy3ZswOqSlpWVgdX9oTVubRQd6ev/BwR8AgIxxQES6Y2cpZ3V/aHWXAExtdc1VRvq+21wAACCZjLRuV0V5bGVHx/1f9me+tADUVsV+ZYxOSU40AACQZJuMLa/oWdnZ8eIX/eYXrgFYJxbb2rN6Tiz4AwAgg9m4rN25sa3tc49//lwB+PgBPvHZMpqemnAAACCJWgv6ijecs3ROz6q/+PlFgEPx33LwBwAga1QPFPWc9dlf/NQZgJqamk0inve6ZFa7chAAAGSUYXnRzRvbG2d/8gufOgMQ9bzfc/AHACDr5CqS+N2qv/DfMwAfv/u3b8rRI4I/q7CoSKVjypSbm6+83DxFImvaggAAgOzneZ6Ghoc0PDSo7q4u9ff3JuulrLzoxp+cBfjvu/2op5Ot44N/JBLRxElTNGHiZOUXFLocDQBAVhocGNDSJYu0ZPEieZ7ncrRRJH6KpEM//g9JtbW1ZSbhLZLk7ChdXjFOVbE65eXluRoJAEBoDA0Nqq2lUR0rV7gc22dyc6Y0NDR0RSTJxO3BcnjwnzK1UnXrrMfBHwCAUcrLy1f9jA00bXrM5dgiLx4/UPrPIkAr+21XkyunxzRtekzGJGUpAQAAoTJlaqWmVcWczTNWB0mSmTlzZl5/T+8KIxX7HTpu/ETV1M3wnw4AAHxKc+OHWr5sie85VuotLCkeGxnq69vGxcE/NydX1TV1voMBAIDPq47VKzfX/w79Rioe6O7eKuJ52tpBLk2trFIksrqHCwIAgNGKRCOaMq3KzTBjtolYaV2/c6LRHI2fONlFJAAA8CUmTJysaNTJm+11I0ae7wJQVlHBoj8AAJLMGKOy8rEuJs2IWJlpfseUlVU4CAMAANakrNzJMXd6xMiW+p1SUFDgIgwAAFiD/Hwnx9zSiGR8F4CcvHwXYQAAwBo42mSvNKLPPBFwNHisDwAAqeFozV00Isn3Y4eGh4cdZAEAAGsy5OCYa6TuiKy6fYcZGvQdBgAArJmLY66VuiMyxve+gt1dnb7DAACANevu6vA/xGhJRLIf+p3TsWK5/zAAAGCNOleu9D3DWjs3Yq3m+h00ODSork7/gQAAwJfr7FipwcEB33OMIh9GIta86SCT2ttaZK11MQoAAHyGtVYL2lsczTJvRuJR+6ykhN9h/X29WrJ4kYNYAADgs5YsXqi+Pt837kmy8Uhe5NlIS0tLh2SdnAWY39aszg4uBQAA4FJXZ4fa25odTTOvNzQ0dH2yh899LkZaa9XUMFddnQ5WKAIAAHUda4a0AAAC50lEQVR2dqhx3geSo6vs1uh+6T+b+HmRyM1yNDqRiOvDubO1+KOFrAkAAGCUrLVa/NECzZs7W4lE3NVYT5HIrZL03/0E66pjT0na2dUrSFJRUbGmVcV4WiAAACPQ2bFSC9pbHF3z/5QnG1tbdpWknE9+xVjzF2vszi5fpa+vV/M+mKP8vHyVjx2n0jFlys3NV15enkyEJwgAAGA9T0NDQxoaHlR3V4c6VqxI2g67VvbCT/7/qk8UMHXVsdclbZ6UVwUAAIGx0ltNrS2b6z+X/COf+j2jc4KJBQAAkspGfqNV1vt97pmCddU1D0h2n5SGAgAAyfRwY2vL3qv+wucuxBsvfryk/pRFAgAAydSXI/uzz/5i9LO/sKKra2VFRflyI30jNbkAAECyGJmfzWttefKzv/65AiBJKzs6Xq8oL6s3MhsnPxoAAEgKq9sb21pO/6Lf+tJ78Qr7So6W7OvJSwUAAJLFWL1aPNh/xJf+/uo+eMbUGeMTuUPPS1rXeTIAAJAktsGLRHZobm5e/GV/YrW78Xy48MNlXsTsKat57sMBAIAkmGuj0V1Xd/CX1lAAJKm5ubl10ItvI+llZ9EAAEAS2NeVE/1qU1NT25r+5Frtxzt//vwVBX3Fu0u6zXc2AADgnJG5pXhgYOfGxsYla/fnR6iuquZIGXuxpMIRpwMAAK71G5njGlqbrx7JB33hbYCrs7KzY9aEsjH/sCZSL2nGSD8eAAC4YWQfyJH2/aL7/Nf8sT7UT6/Zz4vY3xppUz9zAADAiLxhbeSspramB0Y7wFcB+GRGbVXtPsZ4J0naSWu5rgAAAIyIJ+lpK3thU2vrv7XKg31Gw0UB+K/a2tqqSCLxA1mzvzXaQqO4xAAAAD5h45J53Rrdb6LRWxobG9tdTXZaAFZVW1tbFonbr1qjTYzs+lZ2hmTGSyqTbKlkcpL12gAAZA4bl0y3lTqM7HKjyFwrfWCteSuSF3m2oaGhKxmv+v8BqFMZXQSwlf8AAAAASUVORK5CYII=;imageBorder=default;" parent="1" vertex="1">
          <mxGeometry x="630" y="244.25" width="92" height="92" as="geometry" />
        </mxCell>
        <mxCell id="uXduwvgFjA6gVB0bptKn-30" value="" style="whiteSpace=wrap;html=1;aspect=fixed;fillColor=none;shadow=1;" parent="1" vertex="1">
          <mxGeometry x="452.13" y="180" width="285.75" height="285.75" as="geometry" />
        </mxCell>
        <mxCell id="uXduwvgFjA6gVB0bptKn-32" value="&lt;font style=&quot;font-size: 14px;&quot;&gt;Server&lt;/font&gt;" style="text;strokeColor=none;align=center;fillColor=none;html=1;verticalAlign=middle;whiteSpace=wrap;rounded=0;" parent="1" vertex="1">
          <mxGeometry x="542.9" y="184.25" width="104.2" height="26.4" as="geometry" />
        </mxCell>
        <mxCell id="uXduwvgFjA6gVB0bptKn-36" value="" style="shape=image;verticalLabelPosition=bottom;labelBackgroundColor=default;verticalAlign=top;aspect=fixed;imageAspect=0;image=https://upload.wikimedia.org/wikipedia/commons/thumb/f/f1/Icons8_flat_linux.svg/1200px-Icons8_flat_linux.svg.png;" parent="1" vertex="1">
          <mxGeometry x="690" y="414" width="47.88" height="47.88" as="geometry" />
        </mxCell>
        <mxCell id="Gh1d4EB0yZuQr_XUUKXb-1" value="Scale" style="text;strokeColor=none;align=center;fillColor=none;html=1;verticalAlign=middle;whiteSpace=wrap;rounded=0;" vertex="1" parent="1">
          <mxGeometry x="119.62" y="398.25" width="60" height="21.75" as="geometry" />
        </mxCell>
      </root>
    </mxGraphModel>
  </diagram>
</mxfile>
